<svg width="48" height="48" viewBox="0 0 48 48" fill="none" xmlns="http://www.w3.org/2000/svg">
<path d="M46.8675 24.1372C46.8675 36.7047 36.6795 46.8927 24.112 46.8927C11.5444 46.8927 1.3564 36.7047 1.3564 24.1372C1.3564 11.5698 11.5444 1.38179 24.112 1.38179C36.6795 1.38179 46.8675 11.5698 46.8675 24.1372Z" stroke="#4A1B00" stroke-width="0.948146"/>
<g clip-path="url(#clip0_210_305)">
<path d="M29.9938 24.8545C30.0265 28.4347 33.0856 29.6262 33.1195 29.6414C33.0936 29.7254 32.6307 31.3393 31.5078 33.0063C30.5371 34.4475 29.5297 35.8834 27.9427 35.9132C26.3833 35.9424 25.8819 34.9738 24.0991 34.9738C22.3168 34.9738 21.7597 35.8834 20.2835 35.9424C18.7517 36.0013 17.5852 34.3839 16.6065 32.9479C14.6065 30.0107 13.0782 24.6479 15.1304 21.028C16.1499 19.2303 17.9718 18.0919 19.9493 18.0628C21.4535 18.0336 22.8734 19.0908 23.7929 19.0908C24.7119 19.0908 26.4373 17.8194 28.2511 18.0061C29.0105 18.0383 31.1419 18.3177 32.5106 20.3529C32.4003 20.4224 29.9673 21.8612 29.9938 24.8545ZM27.0631 16.0629C27.8764 15.0628 28.4238 13.6707 28.2744 12.2855C27.1021 12.3333 25.6846 13.079 24.8438 14.0785C24.0902 14.9636 23.4303 16.3803 23.6083 17.7381C24.915 17.8408 26.2498 17.0636 27.0631 16.0629Z" fill="#4A1B00"/>
</g>
<defs>
<clipPath id="clip0_210_305">
<rect width="18.963" height="23.7036" fill="white" transform="translate(14.1565 12.2855)"/>
</clipPath>
</defs>
</svg>
