<svg width="47" height="47" viewBox="0 0 47 47" fill="none" xmlns="http://www.w3.org/2000/svg">
<path d="M29.5184 31.2023H16.6214C14.9387 31.2023 13.5698 29.7957 13.5698 28.0666V19.7004C13.5698 17.9715 14.9389 16.5647 16.6214 16.5647H29.5184C31.201 16.5647 32.5698 17.9715 32.5698 19.7004V28.0666C32.5698 29.7957 31.201 31.2023 29.5184 31.2023ZM16.6214 17.4816C15.4308 17.4816 14.4622 18.4769 14.4622 19.7004V28.0666C14.4622 29.29 15.4308 30.2855 16.6214 30.2855H29.5184C30.7091 30.2855 31.6777 29.29 31.6777 28.0666V19.7004C31.6777 18.4769 30.7091 17.4816 29.5184 17.4816H16.6214Z" fill="#F2EFE8"/>
<path d="M15.9013 19.744C18.1821 22.0278 20.4629 24.3114 22.7438 26.5952C23.169 27.0208 23.8215 26.3518 23.3957 25.9253C21.1149 23.6417 18.834 21.3579 16.5532 19.0744C16.128 18.6485 15.4754 19.3177 15.9013 19.744Z" fill="#F2EFE8"/>
<path d="M23.3959 26.5952C25.6767 24.3116 27.9576 22.0278 30.2384 19.7442C30.664 19.3179 30.0119 18.6485 29.5865 19.0743C27.3057 21.3579 25.0248 23.6417 22.744 25.9253C22.3184 26.3516 22.9705 27.021 23.3959 26.5952Z" fill="#F2EFE8"/>
<path d="M30.2132 28.2117C28.6955 26.7327 27.1776 25.2539 25.6599 23.7749C25.2295 23.3556 24.5765 24.0241 25.008 24.4448C26.5257 25.9238 28.0436 27.4026 29.5612 28.8816C29.9917 29.3009 30.6447 28.6321 30.2132 28.2117Z" fill="#F2EFE8"/>
<path d="M16.6196 28.8814C18.1372 27.4024 19.6551 25.9236 21.1728 24.4446C21.6041 24.0242 20.9516 23.3552 20.5209 23.7747C19.0032 25.2537 17.4853 26.7325 15.9677 28.2115C15.5364 28.6319 16.1889 29.3011 16.6196 28.8814Z" fill="#F2EFE8"/>
<circle cx="23.725" cy="23.7201" r="22.8" stroke="#F2EFE8" stroke-width="0.95"/>
</svg>
