<svg width="47" height="47" viewBox="0 0 47 47" fill="none" xmlns="http://www.w3.org/2000/svg">
<path d="M29.0685 31.2023H16.1715C14.4887 31.2023 13.1199 29.7957 13.1199 28.0666V19.7004C13.1199 17.9715 14.4889 16.5647 16.1715 16.5647H29.0685C30.751 16.5647 32.1199 17.9715 32.1199 19.7004V28.0666C32.1199 29.7957 30.751 31.2023 29.0685 31.2023ZM16.1715 17.4816C14.9808 17.4816 14.0122 18.4769 14.0122 19.7004V28.0666C14.0122 29.29 14.9808 30.2855 16.1715 30.2855H29.0685C30.2591 30.2855 31.2277 29.29 31.2277 28.0666V19.7004C31.2277 18.4769 30.2591 17.4816 29.0685 17.4816H16.1715Z" fill="#F2EFE8"/>
<path d="M15.4513 19.744C17.7322 22.0278 20.013 24.3114 22.2938 26.5952C22.719 27.0208 23.3716 26.3518 22.9458 25.9253C20.6649 23.6417 18.3841 21.3579 16.1032 19.0744C15.678 18.6485 15.0255 19.3177 15.4513 19.744Z" fill="#F2EFE8"/>
<path d="M22.9457 26.5952C25.2265 24.3116 27.5074 22.0278 29.7882 19.7442C30.2138 19.3179 29.5617 18.6485 29.1363 19.0743C26.8555 21.3579 24.5746 23.6417 22.2938 25.9253C21.8682 26.3516 22.5203 27.021 22.9457 26.5952Z" fill="#F2EFE8"/>
<path d="M29.7632 28.2117C28.2455 26.7327 26.7276 25.2539 25.21 23.7749C24.7795 23.3556 24.1265 24.0241 24.558 24.4448C26.0757 25.9238 27.5936 27.4026 29.1113 28.8816C29.5417 29.3009 30.1947 28.6321 29.7632 28.2117Z" fill="#F2EFE8"/>
<path d="M16.1696 28.8814C17.6873 27.4024 19.2052 25.9236 20.7229 24.4446C21.1542 24.0242 20.5016 23.3552 20.0709 23.7747C18.5533 25.2537 17.0354 26.7325 15.5177 28.2115C15.0864 28.6319 15.7389 29.3011 16.1696 28.8814Z" fill="#F2EFE8"/>
<circle cx="23.275" cy="23.7201" r="22.8" stroke="#F2EFE8" stroke-width="0.95"/>
</svg>
