<svg width="31" height="69" viewBox="0 0 31 69" fill="none" xmlns="http://www.w3.org/2000/svg">
<path fill-rule="evenodd" clip-rule="evenodd" d="M25.0749 40.4685V15.1515C25.0749 9.70327 20.6582 5.2866 15.21 5.2866C9.76174 5.2866 5.34507 9.70327 5.34507 15.1515V40.4685C5.34507 45.9167 9.76174 50.3334 15.21 50.3334C20.6582 50.3334 25.0749 45.9167 25.0749 40.4685ZM15.21 2.6676C8.31531 2.6676 2.72607 8.25684 2.72607 15.1515V40.4685C2.72607 47.3632 8.31531 52.9524 15.21 52.9524C22.1046 52.9524 27.6939 47.3632 27.6939 40.4685V15.1515C27.6939 8.25683 22.1046 2.6676 15.21 2.6676Z" fill="#4A1B00"/>
<path fill-rule="evenodd" clip-rule="evenodd" d="M7.78955 16.9755C8.5302 16.1601 9.45533 15.6087 10.5949 15.6582C12.2226 15.729 13.6496 16.7249 15.0734 17.7187C17.1623 19.1766 19.2444 20.6297 21.9439 19.1502C22.1955 19.0123 22.454 18.8867 22.7179 18.7725V40.163C22.7179 44.2853 19.376 47.6271 15.2537 47.6271C11.1314 47.6271 7.78955 44.2853 7.78955 40.1629V16.9755ZM15.3397 28.4598C15.3397 29.7134 14.3234 30.7296 13.0699 30.7296C11.8163 30.7296 10.8001 29.7134 10.8001 28.4598C10.8001 27.2062 11.8163 26.19 13.0699 26.19C14.3234 26.19 15.3397 27.2062 15.3397 28.4598ZM18.6796 42.399C19.4028 42.399 19.9891 41.8127 19.9891 41.0895C19.9891 40.3663 19.4028 39.78 18.6796 39.78C17.9563 39.78 17.3701 40.3663 17.3701 41.0895C17.3701 41.8127 17.9563 42.399 18.6796 42.399ZM15.6907 42.9003C15.6907 43.4307 15.2607 43.8606 14.7304 43.8606C14.2 43.8606 13.7701 43.4307 13.7701 42.9003C13.7701 42.3699 14.2 41.94 14.7304 41.94C15.2607 41.94 15.6907 42.3699 15.6907 42.9003ZM19.8604 37.2906C20.3907 37.2906 20.8207 36.8607 20.8207 36.3303C20.8207 35.7999 20.3907 35.37 19.8604 35.37C19.33 35.37 18.9001 35.7999 18.9001 36.3303C18.9001 36.8607 19.33 37.2906 19.8604 37.2906Z" fill="#E2635B"/>
<path d="M15.3 64.7401L15.3 55.5244" stroke="#4A1B00" stroke-width="3.24" stroke-linecap="square"/>
<path d="M4.5 66.445L26.1 66.445" stroke="#4A1B00" stroke-width="3.24" stroke-linecap="round"/>
<path d="M13.255 0.769339C13.3252 0.491324 13.3603 0.352316 13.4388 0.249323C13.5051 0.162237 13.5929 0.0938534 13.6936 0.0508539C13.8127 0 13.9561 0 14.2428 0H16.2502C16.5369 0 16.6803 0 16.7994 0.0508539C16.9001 0.0938534 16.9879 0.162237 17.0542 0.249323C17.1327 0.352316 17.1678 0.491324 17.238 0.769339L17.8031 3.00661H12.6899L13.255 0.769339Z" fill="#4A1B00"/>
<path d="M3.58759 6.57962C3.44457 6.331 3.37306 6.20668 3.3565 6.07737C3.34249 5.96802 3.35631 5.85682 3.39661 5.75454C3.44426 5.6336 3.54389 5.53158 3.74315 5.32754L5.18243 3.85377C5.38169 3.64974 5.48132 3.54772 5.59944 3.49892C5.69932 3.45766 5.80792 3.44351 5.91471 3.45785C6.041 3.47481 6.1624 3.54804 6.40521 3.69449L8.3468 4.86557L4.73127 8.56774L3.58759 6.57962Z" fill="#4A1B00"/>
<path d="M26.8091 6.60474C26.9522 6.35612 27.0237 6.23181 27.0402 6.10249C27.0542 5.99314 27.0404 5.88194 27.0001 5.77967C26.9525 5.65872 26.8528 5.5567 26.6536 5.35267L25.2143 3.8789C25.015 3.67486 24.9154 3.57284 24.7973 3.52405C24.6974 3.48278 24.5888 3.46863 24.482 3.48298C24.3557 3.49994 24.2343 3.57316 23.9915 3.71961L22.0499 4.8907L25.6655 8.59286L26.8091 6.60474Z" fill="#4A1B00"/>
<path d="M29.6709 17.9018C29.9451 17.8291 30.0822 17.7928 30.1836 17.7143C30.2694 17.6478 30.3367 17.5604 30.379 17.4605C30.429 17.3423 30.429 17.2005 30.429 16.9169V14.8046C30.429 14.521 30.429 14.3792 30.379 14.261C30.3367 14.1611 30.2694 14.0737 30.1836 14.0073C30.0822 13.9287 29.9451 13.8924 29.6709 13.8198L27.4927 13.2429V18.4786L29.6709 17.9018Z" fill="#4A1B00"/>
<path d="M0.758015 17.9018C0.483852 17.8291 0.34677 17.7928 0.245319 17.7143C0.159524 17.6478 0.0922597 17.5604 0.0499871 17.4605C0 17.3423 0 17.2005 0 16.9169V14.8046C0 14.521 0 14.3792 0.0499871 14.261C0.0922597 14.1611 0.159524 14.0737 0.245319 14.0073C0.34677 13.9287 0.483851 13.8924 0.758014 13.8198L2.93625 13.2429V18.4786L0.758015 17.9018Z" fill="#4A1B00"/>
</svg>
