<svg width="562" height="1104" viewBox="0 0 562 1104" fill="none" xmlns="http://www.w3.org/2000/svg">
<path d="M394.422 555.119C418.675 555.119 438.335 538.207 438.335 517.345C438.335 496.483 418.675 479.571 394.422 479.571C370.17 479.571 350.509 496.483 350.509 517.345C350.509 538.207 370.17 555.119 394.422 555.119Z" stroke="#F2F0EA" stroke-opacity="0.8" stroke-width="5.11569"/>
<path d="M354.886 535.435C349.492 528.874 346.402 521.049 346.005 512.953C345.609 504.856 347.925 496.853 352.66 489.957C357.395 483.061 364.335 477.583 372.601 474.217C380.867 470.852 390.086 469.75 399.091 471.052C408.096 472.354 416.48 476 423.181 481.53C429.882 487.059 434.598 494.222 436.731 502.111" stroke="#F2F0EA" stroke-opacity="0.8" stroke-width="4.59154"/>
<path d="M50.5745 344.923C147.18 422.155 243.782 499.384 297.449 541.493C351.117 583.601 361.851 590.589 373.888 595.218C385.926 599.848 399.264 602.12 413.576 600.676C427.889 599.232 443.17 594.072 453.9 585.974C464.63 577.876 470.812 566.838 475.413 556.926C480.013 547.015 483.031 538.231 483.008 527.944C482.982 517.656 479.917 505.865 469.951 491.453C459.985 477.04 443.119 460.009 366.194 395.59C289.269 331.172 152.291 219.372 15.3071 107.568" stroke="#F2F0EA" stroke-opacity="0.8" stroke-width="4.55863"/>
<path d="M294.183 534.281C201.137 646.843 108.091 759.405 15.044 871.968" stroke="#F2F0EA" stroke-opacity="0.8" stroke-width="4.55863"/>
<path d="M302.245 545.933C202.298 665.628 102.351 785.323 2.40332 905.018" stroke="#F2F0EA" stroke-opacity="0.8" stroke-width="4.87204"/>
<path d="M470.68 469.875C325.737 347.428 180.794 224.983 35.8525 102.539" stroke="#F2F0EA" stroke-opacity="0.8" stroke-width="4.55863"/>
<path d="M456.281 585.207L31.4674 1101.72" stroke="#F2F0EA" stroke-opacity="0.8" stroke-width="4.55827"/>
<path d="M483.535 525.659V905.498L407.637 833.236" stroke="#F2F0EA" stroke-opacity="0.8" stroke-width="3.79885"/>
<path d="M484.66 907.636L560.558 848.344" stroke="#F2F0EA" stroke-opacity="0.8" stroke-width="3.79885"/>
<path d="M498.175 308.311L167.027 54.386L280.44 54.6774" stroke="#F2F0EA" stroke-opacity="0.8" stroke-width="3.84269"/>
<path d="M158.023 50.13L159.303 137.996" stroke="#F2F0EA" stroke-opacity="0.8" stroke-width="3.84269"/>
<path d="M470.68 469.875C470.68 469.875 470.68 469.875 472.405 472.922C474.129 475.969 477.578 482.062 480.335 488.014C483.092 493.967 485.159 499.781 485.577 506.031C485.995 512.282 484.765 518.971 483.535 525.659" stroke="#F2F0EA" stroke-opacity="0.8" stroke-width="4.55827"/>
<path d="M465.531 465.161C467.667 467.089 469.801 469.016 471.934 470.942" stroke="#F2F0EA" stroke-opacity="0.8" stroke-width="4.20188"/>
</svg>
