<svg width="1832" height="2170" viewBox="0 0 1832 2170" fill="none" xmlns="http://www.w3.org/2000/svg">
<path d="M631.452 972.099C626.833 978.362 617.596 990.886 606.599 1003.19C595.603 1015.49 582.848 1027.56 570.752 1036.96C558.656 1046.35 547.22 1053.06 535.124 1059.32C523.029 1065.58 510.273 1071.4 491.359 1081.91C472.444 1092.42 447.373 1107.63 425.82 1118.37C404.268 1129.1 386.234 1135.36 367.1 1140.51C347.967 1145.65 327.734 1149.68 311.898 1153.7C296.063 1157.73 284.627 1161.75 272.31 1167.12C259.994 1172.49 246.799 1179.2 229.643 1193.96C212.488 1208.72 191.375 1231.53 174.88 1252.11C158.385 1272.69 146.509 1291.03 130.674 1314.73C114.839 1338.44 95.046 1367.52 77.0117 1399.27C58.9773 1431.03 42.7029 1465.48 33.9062 1496.34C25.1094 1527.21 23.7899 1554.49 26.8698 1579.32C29.9497 1604.14 37.4271 1626.51 47.1047 1647.31C56.7824 1668.11 68.6583 1687.34 80.0945 1707.47C91.5307 1727.6 102.527 1748.62 119.902 1769.42C137.278 1790.22 161.03 1810.8 183.463 1827.12C205.896 1843.45 227.009 1855.52 250.321 1867.83C273.634 1880.13 299.145 1892.65 322.897 1899.36C346.649 1906.07 368.642 1906.96 390.415 1911.44C412.189 1915.91 433.741 1923.96 463.212 1934.7C492.683 1945.43 530.07 1958.85 566.578 1970.03C603.087 1981.22 638.714 1990.16 669.944 1993.52C701.174 1996.87 728.004 1994.63 750.217 1991.73C772.429 1988.82 790.023 1985.24 810.476 1978.75C830.929 1972.27 854.241 1962.87 877.553 1951.47C900.866 1940.06 924.178 1926.64 941.771 1913.45C959.365 1900.25 971.241 1887.28 981.577 1873.86C991.914 1860.44 1000.71 1846.58 1011.05 1829.58C1021.38 1812.58 1033.26 1792.45 1047.56 1772.1C1061.85 1751.75 1078.57 1731.17 1097.7 1708.58C1116.83 1685.99 1138.39 1661.39 1161.26 1637.01C1184.13 1612.64 1208.32 1588.48 1233.84 1561.2C1259.35 1533.91 1286.18 1503.5 1308.39 1478.67C1330.6 1453.84 1348.2 1434.61 1365.57 1418.95C1382.95 1403.3 1400.1 1391.22 1419.46 1378.47C1438.81 1365.72 1460.36 1352.31 1485.65 1333.52C1510.95 1314.73 1539.98 1290.58 1557.57 1272.24C1575.16 1253.9 1581.32 1241.38 1586.38 1223.04C1591.44 1204.7 1595.4 1180.55 1597.82 1156.39C1600.24 1132.24 1601.12 1108.08 1599.8 1086.16C1598.48 1064.25 1594.96 1044.57 1586.38 1021.98C1577.81 999.388 1564.17 973.893 1549.66 943.699C1535.14 913.506 1519.74 878.617 1502.59 854.238C1485.44 829.859 1466.52 815.993 1446.07 801.903C1425.62 787.812 1403.63 773.499 1380.31 758.514C1357 743.529 1332.37 727.874 1311.7 717.362C1291.02 706.849 1274.31 701.482 1257.81 696.785C1241.32 692.088 1225.04 688.062 1207.45 684.707C1189.85 681.352 1170.94 678.668 1152.03 675.314C1133.11 671.959 1114.2 667.934 1097.04 666.144C1079.89 664.354 1064.49 664.801 1048.88 667.037C1033.26 669.273 1017.43 673.299 997.415 678.667C977.401 684.034 953.21 690.744 930.557 697.677C907.904 704.61 886.791 711.767 863.478 723.173C840.164 734.58 814.653 750.235 795.959 763.655C777.264 777.074 765.388 788.257 753.952 802.795C742.515 817.333 731.519 835.225 718.983 853.34C706.447 871.456 692.372 889.795 678.296 908.582C664.22 927.369 650.145 946.603 643.108 956.219C636.071 965.836 636.071 965.836 631.452 972.099Z" stroke="white" stroke-opacity="0.5" stroke-width="3.46707"/>
<path d="M735.665 934.027C714.826 962.493 699.897 986.531 684.968 1006.14C670.039 1025.75 655.11 1040.93 636.76 1057.38C618.409 1073.83 596.638 1091.54 577.043 1106.4C557.448 1121.27 540.031 1133.29 515.461 1144.04C490.891 1154.8 459.167 1164.28 427.752 1175.99C396.338 1187.69 365.236 1201.61 336.311 1212.99C307.385 1224.38 280.638 1233.24 258.242 1249.68C235.847 1266.13 217.808 1290.17 198.524 1318.32C179.24 1346.47 158.713 1378.73 142.85 1423.01C126.988 1467.3 115.791 1523.6 116.415 1567.24C117.038 1610.89 129.479 1641.89 148.453 1667.83C167.427 1693.76 192.931 1714.64 226.211 1734.56C259.491 1754.49 300.546 1773.46 330.093 1782.95C359.64 1792.44 377.679 1792.44 399.141 1799.72C420.602 1806.99 445.484 1821.54 472.544 1837.04C499.603 1852.54 528.839 1868.98 554.032 1878.16C579.225 1887.33 600.374 1889.22 626.189 1889.86C652.005 1890.49 682.485 1889.86 717.941 1884.48C753.398 1879.1 793.83 1868.98 828.354 1854.43C862.877 1839.88 891.49 1820.91 911.084 1800.35C930.678 1779.79 941.253 1757.65 955.249 1733.93C969.246 1710.2 986.663 1684.9 1026.79 1640.62C1066.91 1596.34 1129.74 1533.08 1173.28 1489.43C1216.82 1445.78 1241.08 1421.75 1263.17 1402.77C1285.25 1383.79 1305.15 1369.87 1331.59 1349.63C1358.03 1329.39 1391 1302.82 1419.3 1281.63C1447.6 1260.44 1471.24 1244.62 1484.3 1227.86C1497.37 1211.1 1499.86 1193.39 1501.72 1175.04C1503.59 1156.7 1504.83 1137.72 1503.28 1117.79C1501.72 1097.87 1497.37 1076.99 1490.22 1052.01C1483.06 1027.02 1473.11 997.921 1459.74 969.454C1446.36 940.988 1429.57 913.155 1408.23 888.049C1386.88 862.942 1363.01 842.305 1335.33 824.275C1307.65 806.246 1277.17 791.697 1243.58 779.045C1209.98 766.392 1173.28 755.639 1140.31 748.047C1107.35 740.456 1078.11 736.028 1046.38 741.404C1014.66 746.781 980.445 761.962 949.751 772.924C919.057 783.885 895.225 789.796 872.519 800.234C849.812 810.672 829.907 825.221 806.579 848.944C783.252 872.667 756.504 905.56 735.665 934.027Z" stroke="white" stroke-opacity="0.5" stroke-width="3.46707"/>
<path d="M1089.92 1300.33C1226.68 1300.33 1337.54 1207.56 1337.54 1093.12C1337.54 978.68 1226.68 885.908 1089.92 885.908C953.169 885.908 842.308 978.68 842.308 1093.12C842.308 1207.56 953.169 1300.33 1089.92 1300.33Z" stroke="white" stroke-opacity="0.5" stroke-width="3.91499"/>
<path d="M806.269 1154.8C812.491 1174.41 818.711 1194.02 825.866 1210.15C833.02 1226.28 841.107 1238.93 852.305 1249.69C863.503 1260.44 877.81 1269.3 895.538 1278.15C913.267 1287.01 934.417 1295.86 951.212 1305.04C968.007 1314.21 980.448 1323.7 983.866 1333.82C987.285 1343.94 981.687 1354.69 970.181 1357.86C958.676 1361.02 941.259 1356.59 922.908 1347.42C904.557 1338.25 885.274 1324.33 868.479 1312.63C851.683 1300.93 837.376 1291.44 824.624 1281.63C811.872 1271.83 800.675 1261.71 787.301 1252.53C773.927 1243.36 758.376 1235.14 744.379 1224.38C730.382 1213.63 717.942 1200.35 712.963 1188.01C707.984 1175.67 710.472 1164.29 712.961 1153.22C715.449 1142.15 717.937 1131.39 713.124 1123.48C708.311 1115.56 699.281 1111.78 689.95 1108.94C680.619 1106.09 672.533 1104.82 665.998 1109.25C659.464 1113.68 654.488 1123.8 654.178 1133.29C653.869 1142.78 658.223 1151.64 662.267 1158.6C666.311 1165.56 670.043 1170.62 667.864 1180.1C665.684 1189.59 657.598 1203.51 647.958 1212.05C638.317 1220.58 627.121 1223.75 615.921 1226.91" stroke="white" stroke-opacity="0.5" stroke-width="3.46707"/>
<path d="M1043.27 1329.39C1059.45 1331.29 1075.62 1333.19 1094.28 1333.82C1112.94 1334.45 1134.09 1333.82 1156.8 1326.86C1179.5 1319.9 1203.76 1306.62 1217.45 1301.24C1231.13 1295.87 1234.24 1298.4 1236.73 1303.46C1239.22 1308.52 1241.08 1316.11 1237.04 1324.01C1233 1331.92 1223.04 1340.14 1210.6 1346.47C1198.16 1352.79 1183.23 1357.22 1167.99 1360.07C1152.75 1362.92 1137.2 1364.18 1123.52 1363.87C1109.83 1363.55 1098.02 1361.65 1084.33 1360.39C1070.64 1359.12 1055.09 1358.49 1044.21 1358.17C1033.32 1357.86 1027.1 1357.86 1020.88 1360.39C1014.66 1362.92 1008.44 1367.98 1005.64 1372.72C1002.84 1377.47 1003.46 1381.9 1010.93 1385.69C1018.39 1389.49 1032.7 1392.65 1045.76 1394.55C1058.83 1396.44 1070.64 1397.08 1081.53 1397.39C1092.42 1397.71 1102.37 1397.71 1113.88 1397.39C1125.39 1397.08 1138.45 1396.44 1147.16 1396.44C1155.87 1396.44 1160.22 1397.08 1162.4 1401.19C1164.57 1405.3 1164.57 1412.89 1155.24 1418.59C1145.91 1424.28 1127.25 1428.07 1111.91 1428.34C1096.58 1428.61 1089.93 1426.81 1079.35 1427.12C1068.78 1427.44 1056.96 1430.6 1048.56 1436.61C1040.16 1442.62 1035.18 1451.48 1030.21 1460.33" stroke="white" stroke-opacity="0.5" stroke-width="3.46707"/>
<path d="M1272.81 1281.95C1284.63 1273.72 1296.45 1265.5 1306.4 1256.96C1316.35 1248.42 1324.44 1239.56 1333.46 1225.33C1342.48 1211.1 1352.43 1191.49 1358.03 1174.73C1363.63 1157.96 1364.87 1144.05 1366.11 1131.71C1367.36 1119.38 1368.6 1108.62 1371.71 1101.03C1374.82 1093.44 1379.8 1089.01 1385.09 1090.28C1390.38 1091.54 1395.98 1098.5 1399.09 1109.26C1402.19 1120.01 1402.82 1134.56 1399.08 1152.27C1395.35 1169.98 1387.26 1190.86 1378.87 1208.25C1370.47 1225.65 1361.76 1239.56 1353.67 1250.32C1345.59 1261.07 1338.12 1268.66 1331.59 1273.09C1325.06 1277.52 1319.46 1278.78 1315.42 1284.16C1311.37 1289.54 1308.89 1299.03 1308.26 1308.52C1307.64 1318.01 1308.89 1327.5 1304.53 1333.19C1300.18 1338.88 1290.23 1340.78 1279.96 1343.62C1269.7 1346.47 1259.12 1350.26 1248.86 1355.32C1238.6 1360.39 1228.64 1366.71 1224.6 1372.09C1220.56 1377.47 1222.42 1381.9 1233.31 1380C1244.2 1378.1 1264.1 1369.87 1284 1361.65" stroke="white" stroke-opacity="0.5" stroke-width="3.46707"/>
<path d="M802.537 1086.48C805.024 1071.3 807.512 1056.12 811.245 1041.25C814.977 1026.38 819.953 1011.84 826.796 996.969C833.638 982.103 842.347 966.921 851.057 956.799C859.766 946.676 868.475 941.616 880.605 934.974C892.736 928.331 908.286 920.108 925.082 909.354C941.877 898.6 959.916 885.316 968.936 875.513C977.955 865.71 977.955 859.385 972.719 854.8C967.483 850.215 959.298 847.996 948.721 849.893C938.145 851.789 926.326 858.115 919.482 865.392C912.639 872.668 910.773 880.892 900.51 890.695C890.246 900.498 871.585 911.885 856.967 920.108C842.349 928.332 831.774 933.392 820.887 942.882C810 952.372 798.804 966.288 791.961 980.839C785.119 995.39 782.63 1010.57 781.075 1024.8C779.52 1039.04 778.898 1052.32 778.276 1064.66C777.654 1076.99 777.032 1088.38 777.344 1100.72C777.655 1113.05 778.899 1126.33 782.321 1139.62C785.743 1152.9 791.342 1166.19 791.962 1177.26C792.583 1188.33 788.228 1197.18 782.943 1201.61C777.658 1206.04 771.438 1206.04 764.907 1204.14C758.376 1202.24 751.533 1198.45 747.799 1191.81C744.064 1185.16 743.442 1175.68 743.753 1165.24C744.063 1154.8 745.307 1143.41 744.376 1133.93C743.444 1124.44 740.333 1116.85 733.803 1107.99C727.272 1099.13 717.32 1089.01 708.611 1080.79C699.902 1072.56 692.438 1066.24 692.746 1057.07C693.055 1047.89 701.141 1035.87 708.917 1025.75C716.693 1015.63 724.158 1007.41 734.111 996.019C744.063 984.632 756.504 970.083 769.567 952.687C782.63 935.291 796.315 915.049 807.824 902.397C819.333 889.744 828.664 884.683 838.927 878.358C849.191 872.032 860.388 864.441 875.317 853.687C890.246 842.933 908.908 829.017 927.571 821.426C946.234 813.835 964.896 812.569 981.068 808.457C997.24 804.345 1010.93 797.387 1023.37 792.643C1035.81 787.898 1047.01 785.368 1058.83 784.42C1070.65 783.471 1083.09 784.104 1095.22 785.369C1107.35 786.635 1119.17 788.532 1134.41 792.328C1149.65 796.124 1168.31 801.817 1186.96 807.509" stroke="white" stroke-opacity="0.5" stroke-width="3.46707"/>
<path d="M1373.58 1067.5C1368.6 1049.79 1363.63 1032.08 1358.03 1015C1352.43 997.921 1346.21 981.474 1339.37 970.403C1332.53 959.332 1325.06 953.639 1312 942.569C1298.94 931.499 1280.28 915.052 1267.84 905.878C1255.39 896.705 1249.17 894.807 1236.42 889.747C1223.67 884.686 1204.39 876.463 1186.66 872.034C1168.93 867.605 1152.76 866.972 1133.78 866.972C1114.81 866.972 1093.04 867.605 1075.31 867.288C1057.58 866.972 1043.9 865.707 1035.5 860.016C1027.1 854.325 1023.99 844.204 1024.92 835.346C1025.85 826.488 1030.83 818.897 1043.89 816.366C1056.96 813.835 1078.11 816.366 1098.95 820.162C1119.79 823.958 1140.32 829.018 1161.78 830.599C1183.24 832.179 1205.63 830.281 1223.98 830.599C1242.33 830.916 1256.64 833.446 1271.57 837.558C1286.5 841.671 1302.05 847.364 1316.67 856.537C1331.28 865.711 1344.97 878.362 1360.21 898.605C1375.45 918.849 1392.24 946.682 1405 972.302C1417.75 997.922 1426.46 1021.33 1432.68 1039.99C1438.9 1058.65 1442.63 1072.57 1445.43 1087.12C1448.23 1101.66 1450.09 1116.85 1447.6 1126.65C1445.12 1136.45 1438.27 1140.88 1431.74 1141.2C1425.21 1141.52 1418.99 1137.72 1414.64 1126.33C1410.28 1114.95 1407.79 1095.97 1404.06 1076.99C1400.33 1058.02 1395.35 1039.04 1388.51 1018.48C1381.67 997.921 1372.96 975.781 1361.76 956.17C1350.57 936.56 1336.88 919.481 1320.09 904.298C1303.29 889.115 1283.39 875.831 1260.06 867.29C1236.73 858.749 1209.98 854.954 1178.88 851.158C1147.78 847.362 1112.32 843.567 1076.86 839.771" stroke="white" stroke-opacity="0.5" stroke-width="3.46707"/>
<path d="M507.066 1603.3C490.894 1590.65 470.367 1584.32 454.814 1573.57C439.262 1562.82 428.687 1547.64 407.226 1540.36C385.766 1533.08 353.42 1533.71 322.629 1528.02C291.837 1522.33 262.602 1510.31 236.786 1502.09C210.97 1493.86 188.577 1489.43 174.578 1497.66C160.579 1505.88 154.981 1526.76 152.182 1544.79C149.383 1562.82 149.383 1578 153.427 1595.71C157.472 1613.42 165.558 1633.67 179.867 1650.75C194.175 1667.82 214.703 1681.74 240.207 1695.97C265.712 1710.21 296.191 1724.76 327.916 1730.45C359.64 1736.14 392.608 1732.98 429.308 1718.74C466.009 1704.51 506.44 1679.21 520.749 1657.07C535.057 1634.93 523.239 1615.95 507.066 1603.3Z" stroke="white" stroke-opacity="0.5" stroke-width="3.46707"/>
<path d="M761.107 1660.59C725.665 1670.76 715.28 1680.79 704.683 1685.03C694.085 1689.28 683.269 1687.75 668.617 1686.52C653.965 1685.3 635.493 1684.39 619.611 1681.51C603.73 1678.63 590.453 1673.78 574.086 1676.35C557.719 1678.92 538.275 1688.91 514.825 1706.36C491.375 1723.81 463.952 1748.7 469.841 1769.73C475.73 1790.76 514.917 1807.9 544.495 1820.55C574.072 1833.2 594.01 1841.34 620.075 1847.16C646.141 1852.98 678.32 1856.48 709.98 1853.02C741.64 1849.55 772.749 1839.13 811.921 1819.23C851.094 1799.34 898.289 1769.99 917.237 1736.84C936.184 1703.7 926.858 1666.77 891.951 1653.45C857.043 1640.13 796.55 1650.43 761.107 1660.59Z" stroke="white" stroke-opacity="0.5" stroke-width="3.46707"/>
<path d="M447.708 1342.08C474.645 1336.63 482.99 1329.53 491.122 1326.96C499.255 1324.39 507.178 1326.34 517.965 1328.32C528.753 1330.29 542.394 1332.29 553.987 1335.65C565.58 1339 575.116 1343.71 587.419 1342.84C599.723 1341.98 614.783 1335.55 633.294 1323.58C651.805 1311.61 673.741 1294.12 670.723 1277.31C667.705 1260.5 639.743 1244.4 618.62 1232.48C597.496 1220.55 583.232 1212.81 564.275 1206.46C545.318 1200.1 521.677 1195.12 497.975 1195.61C474.273 1196.11 450.533 1202.06 420.205 1214.84C389.877 1227.62 352.992 1247.21 336.812 1271.73C320.633 1296.26 325.179 1325.7 350.213 1338.52C375.246 1351.34 420.77 1347.53 447.708 1342.08Z" stroke="white" stroke-opacity="0.5" stroke-width="2.64664"/>
<path d="M496.487 1557.12C510.799 1560.28 525.107 1563.45 536.925 1569.14C548.744 1574.84 558.075 1583.06 563.728 1592.54C569.382 1602.02 571.134 1611.53 575.802 1620.07C580.469 1628.6 587.933 1635.56 601.93 1640.62C615.926 1645.68 636.453 1648.84 650.447 1646.63C664.441 1644.42 671.906 1636.82 674.705 1628.92C677.505 1621.01 675.639 1612.79 670.041 1610.26C664.443 1607.73 655.113 1610.89 643.606 1611.52C632.099 1612.15 618.414 1610.26 607.527 1603.62C596.641 1596.98 588.554 1585.59 579.535 1575.47C570.516 1565.35 560.563 1556.49 548.122 1551.11C535.681 1545.73 520.752 1543.84 506.756 1541.62C492.759 1539.41 479.697 1536.88 469.744 1534.03C459.791 1531.19 452.949 1528.02 442.374 1522.96C431.799 1517.9 417.492 1510.94 402.562 1507.15C387.632 1503.35 372.081 1502.72 362.749 1499.24C353.418 1495.76 350.308 1489.44 353.729 1484.37C357.15 1479.31 367.102 1475.52 381.722 1475.2C396.342 1474.88 415.625 1478.05 431.177 1484.37C446.728 1490.7 458.547 1500.19 472.543 1505.88C486.539 1511.57 502.712 1513.47 515.775 1514.42C528.838 1515.37 538.791 1515.37 547.5 1515.37C556.208 1515.37 562.429 1515.37 569.893 1519.8C577.358 1524.23 585.445 1533.09 594.465 1540.04C603.485 1547 613.438 1552.06 625.256 1553.01C637.074 1553.96 650.759 1550.79 653.558 1542.57C656.357 1534.35 648.271 1521.07 639.252 1514.42C630.232 1507.78 620.28 1507.78 607.839 1503.03C595.398 1498.29 580.469 1488.8 568.65 1483.43C556.831 1478.05 548.122 1476.78 540.347 1474.25C532.571 1471.72 525.729 1467.93 526.66 1462.87C527.59 1457.8 536.299 1451.48 548.12 1448.95C559.941 1446.42 574.87 1447.68 582.954 1446.42C591.038 1445.15 592.282 1441.36 593.527 1437.56" stroke="white" stroke-opacity="0.5" stroke-width="3.46707"/>
<path d="M563.983 1701.98C571.138 1701.35 578.602 1701.35 584.51 1710.52C590.418 1719.7 594.773 1738.04 599.129 1747.85C603.485 1757.65 607.839 1758.91 610.636 1757.97C613.432 1757.02 614.676 1753.85 612.5 1744.68C610.325 1735.51 604.726 1720.33 603.482 1712.1C602.238 1703.88 605.348 1702.61 613.198 1702.69C621.048 1702.77 630.855 1703.88 637.697 1706.41C644.539 1708.94 647.027 1712.74 649.203 1720.96C651.379 1729.19 653.245 1741.84 657.912 1747.53C662.579 1753.22 670.043 1751.95 671.286 1745C672.53 1738.04 667.554 1725.39 667.865 1718.11C668.176 1710.84 673.774 1708.94 680.307 1707.99C686.839 1707.04 694.304 1707.04 700.212 1711.79C706.121 1716.53 710.475 1726.02 714.52 1730.77C718.564 1735.51 722.296 1735.51 724.16 1734.24C726.024 1732.98 726.024 1730.45 724.781 1725.39C723.538 1720.33 721.05 1712.74 722.915 1706.73C724.781 1700.71 731.001 1696.29 735.979 1697.87C740.956 1699.46 744.688 1707.05 747.176 1715.9C749.663 1724.76 750.907 1734.88 755.262 1738.67C759.617 1742.46 767.082 1739.93 769.259 1734.56C771.436 1729.19 768.326 1720.96 765.526 1712.42C762.727 1703.88 760.239 1695.03 763.039 1689.96C765.839 1684.9 773.925 1683.63 780.145 1690.6C786.365 1697.56 790.719 1712.74 794.764 1721.59C798.809 1730.45 802.541 1732.98 805.649 1732.66C808.757 1732.35 811.245 1729.18 809.691 1720.01C808.137 1710.84 802.538 1695.66 801.605 1686.8C800.672 1677.94 804.403 1675.41 809.692 1680.47C814.98 1685.54 821.823 1698.19 827.112 1705.15C832.4 1712.1 836.132 1713.37 836.752 1707.36C837.372 1701.35 834.884 1688.07 838.929 1681.42C842.974 1674.78 853.549 1674.78 862.258 1675.41C870.967 1676.05 877.81 1677.31 883.407 1680.79C889.005 1684.27 893.36 1689.97 895.535 1696.29C897.711 1702.62 897.711 1708.31 895.844 1714C893.977 1719.69 890.245 1724.75 886.825 1723.81C883.405 1722.86 880.295 1715.9 877.037 1711.27C873.78 1706.63 869.723 1703.88 866.921 1703.88C864.119 1703.88 862.253 1706.41 862.877 1708.94C863.502 1711.47 866.612 1714 868.477 1718.12C870.341 1722.23 870.963 1727.92 869.407 1732.66C867.851 1737.41 864.119 1741.2 860.078 1742.15C856.037 1743.1 851.683 1741.2 847.224 1737.27C842.764 1733.34 838.619 1727.92 835.198 1725.07C831.777 1722.22 829.288 1722.22 828.042 1723.81C826.796 1725.39 826.796 1728.55 828.353 1733.3C829.909 1738.04 833.019 1744.37 835.508 1749.43C837.996 1754.49 839.862 1758.28 839.238 1762.71C838.615 1767.14 835.505 1772.2 832.085 1771.25C828.665 1770.3 824.933 1763.35 819.646 1756.7C814.36 1750.06 807.517 1743.73 802.23 1740.25C796.943 1736.77 793.211 1736.14 791.965 1738.67C790.719 1741.21 791.963 1746.9 794.453 1751.01C796.943 1755.12 800.675 1757.65 802.539 1760.18C804.403 1762.71 804.403 1765.24 804.714 1769.67C805.025 1774.1 805.647 1780.42 803.159 1785.48C800.671 1790.54 795.073 1794.34 789.786 1791.49C784.5 1788.65 779.523 1779.16 777.034 1772.2C774.545 1765.24 774.545 1760.81 771.748 1757.33C768.951 1753.85 763.352 1751.32 758.995 1752.59C754.638 1753.85 751.528 1758.91 751.219 1763.03C750.91 1767.14 753.398 1770.3 755.885 1776C758.373 1781.69 760.861 1789.91 761.482 1796.24C762.103 1802.56 760.858 1806.99 758.372 1809.84C755.885 1812.68 752.153 1813.95 748.11 1811.42C744.067 1808.89 739.713 1802.57 737.534 1794.34C735.355 1786.12 735.355 1776 735.355 1768.41C735.355 1760.81 735.355 1758.28 731.625 1755.75C727.895 1753.22 720.431 1751.96 716.696 1754.49C712.961 1757.02 712.961 1763.34 713.273 1769.99C713.584 1776.63 714.206 1783.59 716.073 1792.13C717.939 1800.67 721.05 1810.79 720.738 1816.8C720.427 1822.8 716.695 1824.7 711.409 1824.07C706.124 1823.44 699.281 1820.28 695.857 1813C692.434 1805.73 692.434 1794.34 692.434 1785.17C692.434 1776 692.434 1769.04 689.637 1765.24C686.84 1761.44 681.241 1760.81 676.573 1764.29C671.905 1767.77 668.173 1775.36 667.241 1783.9C666.308 1792.44 668.175 1801.93 668.485 1808.57C668.795 1815.22 667.551 1819.01 665.376 1820.59C663.202 1822.17 660.092 1821.54 657.29 1813.95C654.489 1806.36 652.001 1791.81 649.729 1781.4C647.458 1770.99 645.781 1765.88 642.048 1764.92C638.316 1763.97 632.717 1767.77 629.918 1774.73C627.118 1781.69 627.118 1791.81 628.052 1799.72C628.986 1807.63 630.852 1813.32 627.743 1815.85C624.634 1818.38 616.548 1817.74 610.637 1812.37C604.726 1806.99 600.994 1796.87 599.127 1788.33C597.26 1779.79 597.26 1772.83 594.152 1768.72C591.044 1764.61 584.823 1763.34 581.711 1764.29C578.598 1765.24 578.598 1768.41 579.221 1775.68C579.843 1782.96 581.087 1794.34 579.223 1799.72C577.358 1805.09 572.382 1804.46 567.235 1801.78C562.088 1799.1 557.453 1794.97 555.895 1787.07C554.338 1779.16 556.204 1767.77 555.273 1760.81C554.343 1753.86 550.611 1751.32 547.186 1752.27C543.762 1753.22 540.652 1757.65 538.164 1763.03C535.676 1768.4 533.81 1774.73 528.214 1776.63C522.618 1778.52 513.288 1775.99 507.998 1769.04C502.708 1762.08 501.464 1750.69 503.33 1743.1C505.196 1735.51 510.173 1731.71 515.151 1731.71C520.13 1731.72 525.106 1735.51 529.771 1737.41C534.437 1739.3 538.791 1739.3 540.966 1736.14C543.141 1732.98 543.141 1726.66 543.141 1720.96C543.141 1715.27 543.141 1710.21 546.564 1707.04C549.987 1703.88 556.829 1702.61 563.983 1701.98Z" stroke="white" stroke-opacity="0.5" stroke-width="3.46707"/>
<path d="M601.724 1312.79C598.742 1312.62 592.783 1312.3 588.886 1305.51C584.988 1298.73 583.151 1285.49 580.549 1278.33C577.947 1271.16 574.583 1270.07 572.266 1270.63C569.948 1271.18 568.672 1273.37 569.59 1279.99C570.508 1286.61 573.621 1297.66 573.879 1303.56C574.137 1309.47 571.541 1310.23 565.316 1309.84C559.091 1309.45 551.29 1308.22 546.054 1306.12C540.818 1304.02 539.17 1301.21 538.168 1295.27C537.165 1289.32 536.806 1280.24 533.589 1275.99C530.372 1271.74 524.3 1272.31 522.685 1277.21C521.07 1282.1 523.913 1291.32 523.014 1296.48C522.114 1301.64 517.475 1302.74 512.175 1303.13C506.874 1303.52 500.915 1303.2 496.621 1299.56C492.328 1295.93 489.7 1288.99 486.894 1285.44C484.089 1281.89 481.11 1281.73 479.509 1282.54C477.907 1283.36 477.681 1285.16 478.223 1288.81C478.765 1292.47 480.076 1297.97 478.051 1302.17C476.025 1306.37 470.663 1309.24 466.831 1307.9C462.999 1306.56 460.698 1300.99 459.503 1294.59C458.308 1288.18 458.219 1280.92 455.081 1278.04C451.943 1275.15 445.758 1276.63 443.54 1280.36C441.322 1284.09 443.07 1290.07 444.542 1296.27C446.014 1302.46 447.21 1308.87 444.522 1312.35C441.834 1315.83 435.265 1316.38 430.921 1311.16C426.577 1305.94 424.458 1294.95 422.02 1288.47C419.582 1281.99 416.828 1280.03 414.318 1280.12C411.809 1280.21 409.539 1282.35 409.961 1288.95C410.382 1295.54 413.495 1306.58 413.449 1312.92C413.402 1319.27 410.197 1320.9 406.427 1317.07C402.657 1313.24 398.325 1303.94 394.724 1298.76C391.124 1293.58 388.257 1292.52 387.225 1296.77C386.193 1301.01 386.993 1310.57 383.17 1315.12C379.347 1319.67 370.904 1319.21 364.007 1318.38C357.111 1317.55 351.761 1316.35 347.603 1313.63C343.444 1310.91 340.477 1306.67 339.305 1302.08C338.133 1297.48 338.642 1293.43 340.641 1289.47C342.64 1285.5 346.072 1282.06 348.718 1282.88C351.363 1283.71 353.225 1288.79 355.432 1292.25C357.639 1295.7 360.591 1297.8 362.828 1297.93C365.065 1298.05 366.781 1296.33 366.509 1294.5C366.236 1292.67 363.979 1290.74 362.857 1287.73C361.736 1284.73 361.746 1280.65 363.41 1277.34C365.075 1274.04 368.394 1271.5 371.705 1271C375.016 1270.5 378.323 1272.04 381.541 1275.04C384.759 1278.05 387.566 1282.06 390.043 1284.23C392.52 1286.41 394.507 1286.52 395.643 1285.45C396.779 1284.37 397.062 1282.13 396.243 1278.68C395.425 1275.24 393.507 1270.6 391.972 1266.89C390.438 1263.19 389.288 1260.41 390.181 1257.28C391.075 1254.16 394.01 1250.7 396.655 1251.52C399.301 1252.34 401.659 1257.46 405.286 1262.41C408.913 1267.37 413.811 1272.17 417.721 1274.87C421.632 1277.58 424.555 1278.19 425.776 1276.44C426.998 1274.7 426.515 1270.59 424.895 1267.56C423.275 1264.53 420.521 1262.56 419.258 1260.7C417.994 1258.83 418.225 1257 418.372 1253.84C418.519 1250.67 418.588 1246.15 421.026 1242.66C423.465 1239.17 428.273 1236.71 432.24 1238.96C436.207 1241.22 439.332 1248.18 440.698 1253.24C442.063 1258.3 441.668 1261.45 443.59 1264.05C445.512 1266.65 449.755 1268.69 453.347 1267.98C456.938 1267.27 459.874 1263.81 460.488 1260.89C461.103 1257.98 459.399 1255.62 457.922 1251.46C456.445 1247.31 455.193 1241.35 455.263 1236.82C455.332 1232.29 456.721 1229.2 458.961 1227.28C461.2 1225.37 464.293 1224.63 467.294 1226.6C470.296 1228.58 473.207 1233.26 474.212 1239.21C475.216 1245.16 474.312 1252.36 473.637 1257.73C472.962 1263.1 472.729 1264.96 475.481 1266.92C478.233 1268.88 484.08 1270.11 487.287 1268.47C490.495 1266.83 491.06 1262.33 491.405 1257.59C491.75 1252.85 491.875 1247.88 491.148 1241.72C490.421 1235.56 488.842 1228.23 489.628 1223.97C490.413 1219.71 493.562 1218.52 497.726 1219.2C501.889 1219.88 507.07 1222.43 509.153 1227.75C511.236 1233.08 510.219 1241.18 509.399 1247.7C508.58 1254.23 507.958 1259.18 509.852 1262C511.745 1264.82 516.159 1265.52 520.196 1263.24C524.234 1260.97 527.892 1255.73 529.4 1249.7C530.907 1243.66 530.265 1236.83 530.611 1232.09C530.957 1227.36 532.289 1224.71 534.167 1223.68C536.045 1222.65 538.471 1223.24 540.029 1228.76C541.587 1234.28 542.274 1244.74 543.156 1252.24C544.038 1259.75 544.919 1263.46 547.814 1264.3C550.708 1265.14 555.517 1262.68 558.374 1257.85C561.232 1253.02 562.136 1245.82 562.098 1240.16C562.06 1234.49 561.079 1230.36 563.788 1228.7C566.497 1227.03 572.897 1227.84 577.135 1231.92C581.374 1236 583.449 1243.36 584.177 1249.52C584.904 1255.67 584.282 1260.62 586.396 1263.69C588.51 1266.75 593.363 1267.92 595.933 1267.38C598.503 1266.84 598.786 1264.59 598.94 1259.38C599.093 1254.18 599.118 1246.03 601.087 1242.29C603.057 1238.54 606.973 1239.21 610.828 1241.33C614.682 1243.44 618.045 1246.61 618.582 1252.3C619.118 1257.99 616.611 1266.01 616.732 1271C616.853 1275.99 619.607 1277.96 622.425 1277.43C625.243 1276.91 628.122 1273.89 630.589 1270.18C633.057 1266.46 635.112 1262.04 639.749 1260.93C644.386 1259.83 651.609 1262.04 655.21 1267.21C658.811 1272.39 658.786 1280.55 656.618 1285.87C654.449 1291.19 650.136 1293.67 646.162 1293.45C642.187 1293.24 638.553 1290.32 634.998 1288.77C631.444 1287.21 627.967 1287.02 625.948 1289.18C623.929 1291.33 623.363 1295.83 622.855 1299.88C622.346 1303.93 621.894 1307.53 618.878 1309.63C615.862 1311.74 610.286 1312.34 607.499 1312.64C604.712 1312.94 604.705 1312.95 601.724 1312.79Z" stroke="white" stroke-opacity="0.5" stroke-width="2.6218"/>
<path d="M482.17 1637.59C480.851 1633.79 478.212 1626.18 475.464 1620.82C472.716 1615.45 469.857 1612.32 467.326 1611.98C464.794 1611.64 462.595 1614.1 460.396 1618.69C458.196 1623.28 455.997 1629.98 453.469 1634.01C450.941 1638.03 448.082 1639.37 445.334 1639.26C442.587 1639.15 439.948 1637.59 439.725 1634.12C439.502 1630.65 441.701 1625.29 444.261 1619.76C446.821 1614.23 449.179 1609.63 449.182 1606.28C449.185 1602.92 446.546 1601.36 442.584 1606.5C438.622 1611.65 433.344 1623.5 428.727 1629.98C424.111 1636.47 420.152 1637.59 417.403 1638.15C414.655 1638.7 413.116 1638.7 411.905 1637.92C410.695 1637.14 409.815 1635.58 413.443 1628.2C417.07 1620.81 425.207 1607.62 428.288 1599.46C431.369 1591.29 429.389 1588.16 427.521 1585.93C425.652 1583.69 423.893 1582.35 420.591 1585.59C417.289 1588.83 412.451 1596.66 407.833 1603.26C403.214 1609.85 398.816 1615.22 395.079 1617.9C391.343 1620.59 388.264 1620.59 386.503 1619.02C384.742 1617.46 384.302 1614.33 385.401 1610.75C386.5 1607.17 389.139 1603.14 392.548 1597.22C395.957 1591.29 400.136 1583.46 400.688 1577.99C401.24 1572.51 398.161 1569.38 394.2 1570.27C390.239 1571.16 385.401 1576.08 380.232 1583.91C375.064 1591.74 369.566 1602.47 365.432 1608.9C361.298 1615.32 358.79 1617.23 355.823 1617.35C352.857 1617.46 349.558 1615.67 347.906 1613.66C346.254 1611.65 346.254 1609.41 348.123 1603.82C349.992 1598.23 353.731 1589.28 355.381 1582.12C357.031 1574.97 356.592 1569.6 354.504 1565.57C352.417 1561.55 348.679 1558.86 344.499 1557.63C340.32 1556.4 335.702 1556.62 332.071 1563.11C328.44 1569.6 325.801 1582.35 322.722 1589.95C319.644 1597.55 316.125 1600.01 312.828 1600.8C309.531 1601.58 306.453 1600.68 305.24 1598.34C304.028 1595.99 304.688 1592.19 305.567 1586.37C306.447 1580.56 307.547 1572.73 308.207 1566.92C308.867 1561.1 309.087 1557.3 307.88 1554.39C306.673 1551.48 304.033 1549.47 301.613 1548.91C299.192 1548.35 296.993 1549.24 294.572 1553.38C292.152 1557.52 289.513 1564.9 286.984 1571.39C284.454 1577.87 282.035 1583.46 279.179 1586.26C276.322 1589.05 273.023 1589.05 270.383 1587.16C267.743 1585.26 265.764 1581.45 266.422 1576.42C267.08 1571.39 270.379 1565.13 272.468 1559.31C274.558 1553.5 275.438 1548.13 274.451 1544.33C273.463 1540.52 270.604 1538.29 268.075 1537.17C265.545 1536.05 263.346 1536.05 260.375 1540.75C257.403 1545.44 253.664 1554.84 250.695 1561.55C247.726 1568.26 245.527 1572.28 242.89 1574.63C240.253 1576.98 237.174 1577.65 234.535 1576.75C231.896 1575.86 229.697 1573.4 229.332 1570.3C228.968 1567.19 230.132 1564.23 232.551 1558.53C234.971 1552.82 238.489 1544.77 239.152 1539.52C239.814 1534.26 237.614 1531.8 235.195 1530.57C232.776 1529.34 230.137 1529.34 227.276 1535.38C224.414 1541.42 221.335 1553.5 218.478 1559.53C215.622 1565.57 212.983 1565.57 210.767 1564.01C208.551 1562.45 207.263 1560.21 207.151 1557.3C207.04 1554.39 208.359 1551.26 209.459 1546.56C210.559 1541.87 211.439 1535.6 210.451 1531.24C209.464 1526.88 206.605 1524.42 203.086 1523.08C199.567 1521.73 195.389 1521.51 191.758 1522.74C188.127 1523.97 185.048 1526.65 182.078 1530.68C179.109 1534.71 176.25 1540.07 174.821 1546.56C173.392 1553.05 173.391 1560.65 173.611 1568.82C173.831 1576.98 174.271 1585.7 175.592 1592.19C176.912 1598.67 179.112 1602.92 181.859 1603.48C184.607 1604.04 187.906 1600.91 189.556 1597.44C191.205 1593.98 191.205 1590.62 191.205 1587.16C191.205 1583.69 191.205 1580.33 192.196 1578.43C193.187 1576.53 195.167 1576.08 197.367 1575.86C199.566 1575.63 201.986 1575.63 203.744 1577.09C205.502 1578.55 206.602 1581.45 206.491 1585.14C206.379 1588.83 205.06 1593.31 203.96 1597.89C202.861 1602.48 201.981 1607.17 201.652 1611.42C201.322 1615.67 201.542 1619.47 203.084 1621.49C204.625 1623.5 207.485 1623.72 209.461 1622.27C211.438 1620.81 212.538 1617.68 213.528 1613.1C214.517 1608.51 215.397 1602.48 217.047 1598.78C218.698 1595.09 221.117 1593.75 223.098 1593.08C225.078 1592.41 226.618 1592.41 227.827 1593.42C229.035 1594.43 229.915 1596.44 229.474 1599.79C229.032 1603.15 227.273 1607.84 225.404 1613.99C223.534 1620.14 221.555 1627.75 220.786 1634.46C220.016 1641.17 220.456 1646.98 222.525 1649.39C224.594 1651.79 227.496 1651 230.133 1646.98C232.771 1642.96 234.75 1635.8 236.509 1629.76C238.269 1623.72 239.808 1618.8 241.128 1614.89C242.447 1610.97 243.547 1608.07 245.309 1606.61C247.071 1605.16 249.49 1605.16 251.799 1606.5C254.108 1607.84 256.307 1610.53 256.305 1615C256.303 1619.47 254.104 1625.73 252.344 1631.55C250.585 1637.37 249.265 1642.73 248.386 1646.76C247.506 1650.78 247.067 1653.47 247.288 1656.38C247.509 1659.28 248.388 1662.42 249.709 1663.98C251.03 1665.54 252.789 1665.54 254.107 1664.98C255.424 1664.43 256.304 1663.31 256.854 1661.3C257.404 1659.28 257.624 1656.38 258.723 1651.68C259.823 1646.98 261.802 1640.5 263.782 1635.46C265.761 1630.43 267.74 1626.85 269.832 1625.29C271.925 1623.72 274.124 1624.17 276.102 1625.62C278.081 1627.08 279.84 1629.54 279.728 1632.22C279.616 1634.9 277.637 1637.81 275.658 1642.84C273.678 1647.88 271.699 1655.03 271.26 1660.51C270.822 1665.99 271.921 1669.8 273.572 1671.69C275.223 1673.59 277.422 1673.59 279.179 1672.25C280.936 1670.91 282.256 1668.23 283.685 1664.43C285.115 1660.62 286.654 1655.7 288.634 1652.24C290.614 1648.77 293.033 1646.75 294.243 1645.75C295.452 1644.74 304.689 1654.14 303.699 1656.71C302.709 1659.28 300.729 1664.43 299.3 1669.91C297.871 1675.39 296.991 1681.2 297.322 1685.67C297.654 1690.15 299.193 1693.28 301.612 1694.06C304.031 1694.84 307.33 1693.27 309.528 1689.36C311.726 1685.45 312.826 1679.19 314.365 1670.24C315.905 1661.3 317.884 1649.67 320.193 1642.28C322.503 1634.9 325.142 1631.77 327.784 1630.77C330.426 1629.76 333.065 1630.88 334.713 1632.44C336.36 1634.01 337.02 1636.02 335.589 1642.4C334.158 1648.77 330.64 1659.51 329.651 1668.45C328.662 1677.4 330.202 1684.56 332.073 1689.25C333.943 1693.95 336.143 1696.19 338.89 1696.07C341.637 1695.96 344.936 1693.5 346.036 1689.47C347.136 1685.45 346.036 1679.86 345.926 1675.05C345.815 1670.24 346.695 1666.22 348.014 1662.97C349.334 1659.73 351.093 1657.27 353.076 1656.6C355.058 1655.93 357.257 1657.04 358.684 1659.39C360.112 1661.74 360.772 1665.32 360.771 1668.68C360.77 1672.03 360.11 1675.16 360.441 1680.08C360.772 1685 362.091 1691.71 363.852 1695.07C365.613 1698.42 367.813 1698.42 369.163 1697.65C370.514 1696.87 370.886 1695.74 371.656 1692.16C372.426 1688.58 373.525 1682.77 374.845 1678.18C376.164 1673.59 377.704 1670.24 379.355 1668.45C381.007 1666.66 382.766 1666.44 384.306 1666.77C385.847 1667.11 387.166 1668 388.154 1669.35C389.143 1670.69 389.802 1672.48 390.021 1674.6C390.24 1676.73 390.02 1679.19 389.549 1681.64C389.078 1684.09 388.48 1686.12 389.031 1689.25C389.582 1692.38 391.342 1696.41 394.091 1697.64C396.84 1698.86 400.578 1697.3 402.667 1695.18C404.755 1693.05 405.194 1690.37 405.744 1686.12C406.294 1681.87 406.954 1676.06 407.723 1670.91C408.493 1665.77 409.373 1661.29 410.913 1658.61C412.454 1655.92 414.653 1655.03 416.964 1654.92C419.275 1654.81 421.694 1655.48 422.901 1657.16C424.108 1658.84 424.108 1661.52 424.108 1664.87C424.108 1668.23 424.108 1672.25 424.108 1675.61C424.108 1678.96 424.108 1681.65 424.108 1682.99C424.108 1684.33 428.067 1688.35 429.278 1688.24C430.49 1688.13 432.909 1687.9 434.666 1685.56C436.424 1683.21 437.523 1678.74 438.183 1674.71C438.844 1670.69 439.064 1667.11 439.833 1663.98C440.603 1660.85 441.922 1658.16 443.904 1656.82C445.886 1655.48 448.525 1655.48 449.842 1657.27C451.16 1659.06 451.16 1662.64 452.152 1664.98C453.145 1667.33 455.124 1668.45 457.101 1668.34C459.078 1668.22 461.057 1666.88 463.808 1666.34C466.56 1665.79 470.078 1666.04 473.608 1664.06C477.139 1662.08 480.685 1657.85 482.335 1653.7C483.985 1649.55 483.737 1645.47 483.613 1643.43C483.489 1641.39 483.489 1641.39 482.17 1637.59Z" stroke="white" stroke-opacity="0.5" stroke-width="3.46707"/>
<path d="M742.235 1587.82C732.449 1592.63 712.876 1602.25 702.978 1611.42C693.08 1620.59 692.86 1629.31 692.86 1636.36C692.86 1643.4 693.08 1648.77 699.021 1652.13C704.961 1655.48 715.421 1656.68 726.089 1653.6C736.756 1650.52 743.664 1644.3 760.6 1640.94C777.537 1637.59 803.708 1637.81 820.42 1630.99C837.133 1624.17 844.39 1610.3 839.774 1595.65C835.158 1581.01 818.664 1565.57 802.057 1563.34C785.451 1561.1 768.736 1572.06 760.379 1577.54C752.021 1583.02 752.021 1583.01 742.235 1587.82Z" stroke="white" stroke-opacity="0.5" stroke-width="3.46707"/>
<path d="M223.397 1411.56C213.057 1414.31 199.416 1417.41 190.714 1421.25C182.011 1425.09 178.261 1429.67 174.95 1437.27C171.639 1444.88 168.77 1455.5 171.569 1463.2C174.368 1470.9 181.961 1475.2 191.014 1476.23C200.066 1477.26 207.213 1474.63 222.202 1478.97C237.191 1483.3 259.203 1494.89 276.521 1496.27C293.838 1497.64 306.461 1488.82 308.483 1473.5C310.505 1458.18 301.924 1436.37 290.043 1423.71C278.162 1411.05 262.983 1407.54 251.876 1406.98C240.77 1406.42 233.737 1408.82 223.397 1411.56Z" stroke="white" stroke-opacity="0.5" stroke-width="3.46707"/>
<path d="M334.588 1348.45C324.411 1345.14 311.262 1340.32 301.89 1338.82C292.518 1337.32 286.939 1339.14 280.136 1343.76C273.332 1348.37 265.315 1355.78 263.619 1363.8C261.923 1371.83 266.068 1379.6 273.169 1385.4C280.27 1391.2 287.685 1392.88 298.055 1404.71C308.426 1416.54 320.904 1438.32 334.799 1448.92C348.694 1459.52 364.003 1458.95 373.784 1447.11C383.565 1435.28 387.811 1412.2 384.453 1395.03C381.094 1377.87 370.127 1366.63 361.045 1360.11C351.963 1353.58 344.764 1351.77 334.588 1348.45Z" stroke="white" stroke-opacity="0.5" stroke-width="3.46707"/>
<path d="M485.372 1395.12C480.684 1391.55 471.309 1384.39 464.725 1379.46C458.141 1374.54 454.363 1371.85 447.846 1374.53C441.329 1377.21 432.095 1385.27 428.314 1393.68C424.534 1402.09 426.028 1409.96 430.343 1417.44C434.657 1424.92 440.185 1429.23 442.842 1438.28C445.499 1447.34 444.654 1460.63 453.605 1469.57C462.557 1478.5 481.288 1483.06 494.729 1478.33C508.17 1473.61 516.296 1459.6 517.298 1446.37C518.301 1433.14 512.169 1420.69 506.441 1412.87C500.713 1405.06 495.388 1401.88 492.724 1400.29C490.06 1398.7 490.06 1398.7 485.372 1395.12Z" stroke="white" stroke-opacity="0.5" stroke-width="3.03786"/>
<path d="M882.241 1379.75C872.065 1376.43 858.915 1371.61 849.543 1370.11C840.171 1368.61 834.592 1370.44 827.789 1375.05C820.986 1379.67 812.968 1387.07 811.272 1395.1C809.576 1403.12 813.722 1410.89 820.823 1416.69C827.924 1422.5 835.338 1424.18 845.709 1436.01C856.079 1447.83 868.557 1469.61 882.452 1480.21C896.348 1490.81 911.657 1490.24 921.437 1478.41C931.218 1466.57 935.464 1443.49 932.106 1426.33C928.747 1409.16 917.781 1397.93 908.698 1391.4C899.616 1384.88 892.418 1383.06 882.241 1379.75Z" stroke="white" stroke-opacity="0.5" stroke-width="3.46707"/>
<path d="M616.434 1370.98C609.613 1372.53 595.974 1375.64 587.275 1379.49C578.575 1383.34 574.828 1387.92 572.842 1394.18C570.856 1400.45 570.634 1408.38 573.767 1414.18C576.901 1419.98 582.72 1423.27 590.321 1425.77C597.923 1428.28 604.472 1429.06 619.133 1435.29C633.794 1441.51 655.814 1453.08 673.132 1454.45C690.451 1455.81 703.068 1446.98 705.079 1431.65C707.091 1416.33 698.496 1394.53 686.606 1381.88C674.716 1369.23 659.535 1365.73 648.428 1365.18C637.321 1364.63 630.289 1367.03 626.772 1368.23C623.255 1369.42 623.255 1369.42 616.434 1370.98Z" stroke="white" stroke-opacity="0.5" stroke-width="3.46707"/>
<path d="M809.646 1425.79C815.805 1433.17 822.843 1436.3 829.987 1443.4C837.131 1450.5 843.954 1460.91 852.092 1470.52C860.231 1480.14 869.467 1488.64 880.024 1494.68C890.581 1500.71 902.457 1504.29 912.352 1503.17C922.246 1502.05 930.164 1496.24 936.321 1487.29C942.479 1478.35 946.877 1466.27 948.637 1452.41C950.397 1438.54 949.517 1422.88 945.78 1411.48C942.043 1400.07 935.445 1392.92 924.449 1385.31C913.453 1377.71 898.059 1369.65 880.904 1363.84C863.749 1358.02 844.836 1354.44 832.078 1355.11C819.32 1355.79 812.722 1360.7 807.223 1368.09C801.724 1375.47 797.326 1385.31 797.767 1396.05C798.208 1406.78 803.487 1418.41 809.646 1425.79Z" stroke="white" stroke-opacity="0.5" stroke-width="3.46707"/>
<path d="M587.299 1440.1C597.196 1443.46 604.673 1443.46 614.351 1447.71C624.028 1451.96 635.904 1460.46 650.858 1463.81C665.813 1467.16 683.847 1465.37 695.941 1461.35C708.035 1457.32 714.193 1451.06 717.273 1444.8C720.352 1438.54 720.352 1432.28 719.692 1423.56C719.033 1414.83 717.713 1403.65 711.337 1392.47C704.96 1381.29 693.524 1370.1 683.628 1362.27C673.732 1354.45 665.374 1349.97 650.858 1351.31C636.341 1352.65 615.668 1359.81 599.393 1365.4C583.118 1370.99 571.242 1375.02 564.203 1381.06C557.164 1387.1 554.965 1395.15 553.866 1402.53C552.766 1409.91 552.766 1416.62 558.927 1423.33C565.087 1430.04 577.403 1436.75 587.299 1440.1Z" stroke="white" stroke-opacity="0.5" stroke-width="3.46707"/>
<path d="M364.068 1440.77C366.266 1428.25 368.466 1415.73 367.148 1404.99C365.83 1394.26 360.991 1385.31 353.295 1377.93C345.598 1370.55 335.042 1364.73 324.925 1361.15C314.808 1357.57 305.131 1356.23 298.311 1358.25C291.491 1360.26 287.532 1365.63 286.654 1370.33C285.776 1375.02 287.975 1379.05 293.255 1382.18C298.534 1385.31 306.891 1387.54 313.268 1392.24C319.645 1396.94 324.044 1404.1 328.223 1409.91C332.402 1415.73 336.36 1420.2 338.998 1425.12C341.636 1430.04 342.956 1435.41 345.816 1438.09C348.677 1440.77 353.075 1440.77 357.47 1440.77" stroke="white" stroke-opacity="0.5" stroke-width="3.46707"/>
<path d="M960.684 1515.78C958.044 1518.24 958.044 1521.82 960.685 1523.61C963.326 1525.4 968.605 1525.4 971.242 1522.94C973.879 1520.48 973.879 1515.56 971.241 1513.77C968.603 1511.98 963.325 1513.32 960.684 1515.78Z" stroke="white" stroke-opacity="0.5" stroke-width="2.31138"/>
<path d="M748.739 1476.2C746.099 1478.66 746.099 1482.24 748.74 1484.02C751.381 1485.81 756.659 1485.81 759.297 1483.35C761.934 1480.89 761.934 1475.97 759.296 1474.18C756.658 1472.39 751.38 1473.73 748.739 1476.2Z" stroke="white" stroke-opacity="0.5" stroke-width="2.31138"/>
<path d="M1013.73 1489.48C1011.09 1491.94 1011.09 1495.52 1013.73 1497.31C1016.38 1499.1 1021.65 1499.1 1024.29 1496.64C1026.93 1494.18 1026.93 1489.26 1024.29 1487.47C1021.65 1485.68 1016.37 1487.02 1013.73 1489.48Z" stroke="white" stroke-opacity="0.5" stroke-width="2.31138"/>
<path d="M948.418 1665.97C945.778 1668.43 945.778 1672.01 948.419 1673.8C951.06 1675.59 956.338 1675.59 958.975 1673.13C961.612 1670.67 961.612 1665.75 958.975 1663.96C956.337 1662.17 951.059 1663.51 948.418 1665.97Z" stroke="white" stroke-opacity="0.5" stroke-width="2.31138"/>
<path d="M1051.06 1542.62C1048.42 1545.08 1048.42 1548.66 1051.06 1550.44C1053.7 1552.23 1058.98 1552.23 1061.61 1549.77C1064.25 1547.32 1064.25 1542.4 1061.61 1540.6C1058.97 1538.81 1053.7 1540.15 1051.06 1542.62Z" stroke="white" stroke-opacity="0.5" stroke-width="2.31138"/>
<path d="M324.189 1498.97C321.549 1501.43 321.549 1505.01 324.19 1506.8C326.831 1508.58 332.109 1508.58 334.747 1506.13C337.384 1503.67 337.384 1498.75 334.746 1496.96C332.108 1495.16 326.83 1496.51 324.189 1498.97Z" stroke="white" stroke-opacity="0.5" stroke-width="2.31138"/>
<path d="M234.614 1376.56C231.973 1379.03 231.973 1382.6 234.615 1384.39C237.256 1386.18 242.534 1386.18 245.171 1383.72C247.808 1381.26 247.808 1376.34 245.17 1374.55C242.533 1372.76 237.254 1374.1 234.614 1376.56Z" stroke="white" stroke-opacity="0.5" stroke-width="2.31138"/>
<path d="M288.732 1307.3C286.092 1309.76 286.092 1313.34 288.733 1315.12C291.374 1316.91 296.653 1316.91 299.29 1314.45C301.927 1311.99 301.927 1307.07 299.289 1305.28C296.651 1303.49 291.373 1304.83 288.732 1307.3Z" stroke="white" stroke-opacity="0.5" stroke-width="2.31138"/>
<path d="M409.099 1372.77C406.459 1375.23 406.459 1378.81 409.1 1380.6C411.741 1382.38 417.02 1382.38 419.657 1379.93C422.294 1377.47 422.294 1372.55 419.656 1370.76C417.018 1368.96 411.74 1370.31 409.099 1372.77Z" stroke="white" stroke-opacity="0.5" stroke-width="2.31138"/>
<path d="M390.438 1754.22C387.797 1756.68 387.797 1760.26 390.438 1762.04C393.08 1763.83 398.358 1763.83 400.995 1761.37C403.632 1758.91 403.632 1753.99 400.994 1752.2C398.356 1750.41 393.078 1751.75 390.438 1754.22Z" stroke="white" stroke-opacity="0.5" stroke-width="2.31138"/>
<path d="M410.965 1445.83C408.325 1448.29 408.325 1451.87 410.966 1453.66C413.607 1455.45 418.886 1455.45 421.523 1452.99C424.16 1450.53 424.16 1445.61 421.522 1443.82C418.884 1442.03 413.606 1443.37 410.965 1445.83Z" stroke="white" stroke-opacity="0.5" stroke-width="2.31138"/>
<path d="M213.153 1335.76C210.513 1338.22 210.513 1341.8 213.154 1343.59C215.795 1345.38 221.073 1345.38 223.711 1342.92C226.348 1340.46 226.348 1335.54 223.71 1333.75C221.072 1331.96 215.794 1333.3 213.153 1335.76Z" stroke="white" stroke-opacity="0.5" stroke-width="2.31138"/>
<path d="M144.105 1485.68C141.465 1488.15 141.465 1491.73 144.106 1493.51C146.747 1495.3 152.026 1495.3 154.663 1492.84C157.3 1490.38 157.3 1485.46 154.662 1483.67C152.024 1481.88 146.746 1483.22 144.105 1485.68Z" stroke="white" stroke-opacity="0.5" stroke-width="2.31138"/>
<path d="M546.262 1646.04C543.621 1648.51 543.621 1652.08 546.263 1653.87C548.904 1655.66 554.182 1655.66 556.819 1653.2C559.456 1650.74 559.456 1645.82 556.818 1644.03C554.18 1642.24 548.902 1643.58 546.262 1646.04Z" stroke="white" stroke-opacity="0.5" stroke-width="2.31138"/>
<path d="M527.6 1426.85C524.96 1429.32 524.96 1432.89 527.601 1434.68C530.242 1436.47 535.52 1436.47 538.157 1434.01C540.794 1431.55 540.794 1426.63 538.157 1424.84C535.519 1423.05 530.24 1424.39 527.6 1426.85Z" stroke="white" stroke-opacity="0.5" stroke-width="2.31138"/>
<path d="M498.675 1346.2C496.034 1348.66 496.034 1352.24 498.675 1354.03C501.317 1355.82 506.595 1355.82 509.232 1353.36C511.869 1350.9 511.869 1345.98 509.231 1344.19C506.593 1342.4 501.315 1343.74 498.675 1346.2Z" stroke="white" stroke-opacity="0.5" stroke-width="2.31138"/>
<path d="M719.805 1625.12C721.671 1619.74 728.514 1615.95 737.223 1611.84C745.932 1607.72 756.507 1603.3 765.837 1597.92C775.167 1592.54 783.253 1586.22 791.653 1587.8C800.052 1589.38 808.761 1598.87 806.272 1606.46C803.782 1614.05 790.097 1619.74 778.59 1623.22C767.083 1626.7 757.752 1627.97 749.042 1631.13C740.332 1634.29 732.246 1639.35 726.648 1638.41C721.05 1637.46 717.94 1630.5 719.805 1625.12Z" stroke="white" stroke-opacity="0.5" stroke-width="3.46707"/>
<path d="M1090.55 1560.6C1086.19 1559.65 1069.4 1569.77 1058.82 1571.35C1048.25 1572.94 1043.9 1565.98 1040.16 1559.65C1036.43 1553.33 1033.32 1547.63 1026.17 1544.79C1019.01 1541.94 1007.82 1541.94 996.308 1544.47C984.799 1547 972.98 1552.06 964.27 1562.5C955.56 1572.94 949.962 1588.75 948.72 1598.87C947.478 1609 950.588 1613.42 954.632 1617.53C958.676 1621.65 963.653 1625.44 969.251 1627.34C974.849 1629.23 981.069 1629.23 986.046 1631.45C991.022 1633.67 994.754 1638.09 997.552 1645.05C1000.35 1652.01 1002.22 1661.5 1004.98 1662.89C1007.74 1664.29 1010.3 1659.6 1009.99 1652.01C1009.68 1644.42 1005.95 1634.93 1000.66 1628.29C995.377 1621.65 988.535 1617.85 983.247 1615.95C977.959 1614.05 974.227 1614.05 971.427 1612.16C968.627 1610.26 966.76 1606.47 965.826 1602.35C964.892 1598.24 964.892 1593.81 966.447 1588.43C968.001 1583.06 971.112 1576.73 975.467 1571.67C979.822 1566.61 985.42 1562.81 991.642 1560.28C997.864 1557.75 1004.71 1556.49 1010.62 1558.7C1016.53 1560.92 1021.5 1566.61 1025.23 1571.99C1028.97 1577.37 1031.45 1582.43 1035.5 1584.95C1039.54 1587.48 1045.14 1587.48 1052.61 1587.17C1060.07 1586.85 1069.4 1586.22 1078.11 1579.89C1086.81 1573.57 1094.9 1561.55 1090.55 1560.6Z" stroke="white" stroke-opacity="0.5" stroke-width="3.46707"/>
<path d="M688.701 1183.26C688.701 1190.86 688.701 1198.45 684.968 1206.35C681.236 1214.26 673.771 1222.48 670.973 1231.66C668.174 1240.83 670.04 1250.95 675.018 1260.44C679.996 1269.93 688.083 1278.79 690.844 1286.25C693.605 1293.72 692.432 1296.5 688.7 1301.56C684.968 1306.62 679.37 1312.31 680.927 1321.17C682.484 1330.03 691.193 1342.05 699.28 1349.64C707.368 1357.23 714.832 1360.39 721.673 1370.51C728.514 1380.63 734.735 1397.71 736.911 1412.58C739.087 1427.44 737.221 1440.09 730.067 1452.43C722.913 1464.76 710.473 1476.78 696.79 1482.79C683.106 1488.8 668.177 1488.8 654.493 1486.9C640.808 1485.01 628.367 1481.21 627.745 1484.06C627.123 1486.91 638.319 1496.39 654.493 1502.72C670.667 1509.04 691.816 1512.21 712.655 1518.85C733.494 1525.49 754.021 1535.61 758.374 1542.89C762.727 1550.16 750.908 1554.59 735.047 1552.06C719.186 1549.53 699.281 1540.04 687.979 1539.06C676.677 1538.08 674.393 1544.47 680.928 1551.11C687.462 1557.75 703.013 1564.08 709.231 1570.09C715.448 1576.1 712.338 1581.79 704.565 1584.32C696.792 1586.85 684.351 1586.22 670.977 1585.9C657.602 1585.59 643.295 1585.59 631.82 1584.23C620.344 1582.88 612.816 1580.53 604.724 1577.99" stroke="white" stroke-opacity="0.5" stroke-width="3.46707"/>
<path d="M940.632 1705.14C936.901 1689.33 933.168 1673.52 927.571 1661.82C921.974 1650.11 914.51 1642.52 905.179 1637.46C895.849 1632.4 884.652 1629.87 876.254 1626.39C867.856 1622.91 862.258 1618.48 859.146 1611.52C856.033 1604.57 855.411 1595.08 852.302 1582.43C849.192 1569.77 843.594 1553.96 835.197 1544.47C826.801 1534.98 815.604 1531.82 808.139 1527.07C800.673 1522.33 796.941 1516.01 794.762 1504.62C792.584 1493.23 791.962 1476.79 787.298 1463.82C782.635 1450.85 773.926 1441.36 768.948 1432.19C763.97 1423.02 762.726 1414.16 760.86 1404.04C758.994 1393.92 756.506 1382.53 751.531 1373.04C746.556 1363.55 739.091 1355.96 733.181 1348.69C727.271 1341.41 722.917 1334.45 721.671 1324.65C720.425 1314.84 722.291 1302.19 719.805 1292.39C717.319 1282.58 710.477 1275.62 708.297 1267.4C706.118 1259.18 708.606 1249.69 711.095 1240.2" stroke="white" stroke-opacity="0.5" stroke-width="3.46707"/>
<path d="M729.757 1243.99C734.735 1259.81 739.711 1275.62 744.687 1293.02C749.664 1310.42 754.64 1329.39 760.862 1341.1C767.085 1352.8 774.549 1357.23 782.944 1353.11C791.339 1349 800.67 1336.35 818.712 1333.5C836.755 1330.66 863.503 1337.61 888.385 1348.05C913.267 1358.49 936.282 1372.41 950.277 1389.17C964.271 1405.94 969.248 1425.55 971.735 1441.04C974.223 1456.54 974.223 1467.93 976.401 1478.05C978.58 1488.17 982.934 1497.03 989.156 1503.67C995.378 1510.31 1003.46 1514.74 1014.35 1515.05C1025.23 1515.37 1038.92 1511.57 1051.96 1509.36C1065.01 1507.15 1077.49 1506.51 1090.55 1510.31C1103.61 1514.11 1117.3 1522.33 1130.98 1530.55" stroke="white" stroke-opacity="0.5" stroke-width="3.46707"/>
<path d="M468.314 1160.31C485.033 1163 501.748 1165.68 521.102 1170.6C540.456 1175.52 562.448 1182.68 579.163 1187.15C595.877 1191.63 607.313 1193.41 616.548 1190.73C625.782 1188.05 632.82 1180.89 632.164 1171.18C631.508 1161.47 624.026 1150.48 620.066 1140.64C616.106 1130.8 616.106 1122.74 619.184 1113.8C622.263 1104.85 628.421 1095.01 634.58 1089.19C640.74 1083.38 646.898 1081.59 653.494 1074.88C660.091 1068.17 667.128 1056.54 670.647 1047.6C674.167 1038.65 674.167 1032.39 674.167 1026.12" stroke="white" stroke-opacity="0.5" stroke-width="3.46707"/>
<path d="M943.359 1835.29C922.246 1857.21 898.494 1877.79 865.505 1894.34C832.517 1910.89 790.291 1923.41 741.027 1930.12C691.764 1936.83 635.463 1937.73 592.797 1933.25C550.131 1928.78 521.102 1918.94 492.51 1905.97C463.919 1893 435.769 1876.9 404.099 1864.37C372.429 1851.85 337.241 1842.9 306.451 1833.06C275.661 1823.22 249.27 1812.48 223.318 1795.93C197.366 1779.38 171.855 1757.02 151.181 1733.76C130.507 1710.5 114.672 1686.35 101.915 1661.3C89.1589 1636.25 79.4823 1610.31 76.8421 1579.44C74.2018 1548.58 78.6003 1512.79 93.9953 1469.4C109.39 1426.01 135.781 1375.02 165.252 1329.39C194.723 1283.77 227.272 1243.51 271.219 1215.21C315.166 1186.91 368.909 1171.05 413.334 1153.16C457.759 1135.26 492.067 1115.58 526.816 1094.11C561.565 1072.64 596.752 1049.38 627.542 1021.2C658.332 993.022 684.723 959.923 713.753 921.454C742.784 882.986 774.453 839.151 802.165 810.97C829.877 782.789 853.629 770.265 878.701 756.845C903.774 743.426 930.164 729.113 960.516 721.061C990.868 713.01 1025.18 711.221 1063.88 711.221C1102.59 711.221 1145.7 713.011 1191.88 725.089C1238.07 737.167 1287.33 759.532 1333.96 788.161C1380.58 816.789 1424.57 851.678 1453.16 887.016C1481.75 922.354 1494.94 958.137 1507.26 998.842C1519.57 1039.55 1531.01 1085.17 1530.57 1126.32C1530.13 1167.47 1517.81 1204.15 1499.78 1235.01C1481.74 1265.88 1457.99 1290.93 1428.08 1314.63C1398.17 1338.34 1362.1 1360.7 1329.55 1386.65C1297 1412.59 1267.97 1442.11 1231.46 1481.03C1194.96 1519.95 1150.97 1568.25 1111.38 1617.46C1071.8 1666.66 1036.61 1716.76 1009.78 1753.44C982.945 1790.12 964.471 1813.38 943.359 1835.29Z" stroke="white" stroke-opacity="0.5" stroke-width="3.46707"/>
</svg>
