<svg width="730" height="1025" viewBox="0 0 730 1025" fill="none" xmlns="http://www.w3.org/2000/svg">
<path d="M307.511 635.82C331.764 635.82 351.424 618.908 351.424 598.046C351.424 577.185 331.764 560.273 307.511 560.273C283.259 560.273 263.598 577.185 263.598 598.046C263.598 618.908 283.259 635.82 307.511 635.82Z" stroke="#F2F0EA" stroke-opacity="0.8" stroke-width="5.11569"/>
<path d="M267.975 616.137C262.581 609.575 259.491 601.751 259.094 593.654C258.698 585.558 261.014 577.554 265.749 570.658C270.483 563.763 277.424 558.285 285.69 554.919C293.956 551.553 303.175 550.452 312.18 551.753C321.185 553.055 329.569 556.702 336.27 562.231C342.971 567.761 347.687 574.924 349.82 582.813" stroke="#F2F0EA" stroke-opacity="0.8" stroke-width="4.59154"/>
<path d="M-36.3366 425.624C60.2685 502.856 156.87 580.086 210.538 622.194C264.206 664.303 274.94 671.29 286.977 675.92C299.015 680.549 312.353 682.821 326.665 681.377C340.978 679.933 356.259 674.773 366.989 666.675C377.719 658.578 383.901 647.539 388.501 637.628C393.102 627.717 396.12 618.932 396.096 608.645C396.071 598.358 393.006 586.567 383.04 572.154C373.074 557.742 356.207 540.71 279.282 476.292C202.357 411.873 65.3797 300.074 -71.604 188.269" stroke="#F2F0EA" stroke-opacity="0.8" stroke-width="4.55863"/>
<path d="M207.272 614.983C114.226 727.544 21.1795 840.107 -71.8671 952.669" stroke="#F2F0EA" stroke-opacity="0.8" stroke-width="4.55863"/>
<path d="M215.334 626.635C115.387 746.329 15.4395 866.024 -84.5078 985.72" stroke="#F2F0EA" stroke-opacity="0.8" stroke-width="4.87204"/>
<path d="M383.769 550.576C238.825 428.13 93.8828 305.685 -51.0586 183.24" stroke="#F2F0EA" stroke-opacity="0.8" stroke-width="4.55863"/>
<path d="M369.37 665.908L-55.4437 1182.42" stroke="#F2F0EA" stroke-opacity="0.8" stroke-width="4.55827"/>
<path d="M396.623 606.361V986.199L320.726 913.937" stroke="#F2F0EA" stroke-opacity="0.8" stroke-width="3.79885"/>
<path d="M397.749 988.338L473.646 929.046" stroke="#F2F0EA" stroke-opacity="0.8" stroke-width="3.79885"/>
<path d="M411.263 389.012L80.1159 135.087L193.529 135.379" stroke="#F2F0EA" stroke-opacity="0.8" stroke-width="3.84269"/>
<path d="M71.1119 130.831L72.3914 218.697" stroke="#F2F0EA" stroke-opacity="0.8" stroke-width="3.84269"/>
<path d="M383.769 550.576C383.769 550.576 383.769 550.576 385.494 553.623C387.218 556.671 390.666 562.763 393.424 568.716C396.181 574.669 398.248 580.482 398.666 586.733C399.084 592.983 397.854 599.673 396.623 606.361" stroke="#F2F0EA" stroke-opacity="0.8" stroke-width="4.55827"/>
<path d="M378.62 545.862C380.756 547.791 382.89 549.718 385.023 551.644" stroke="#F2F0EA" stroke-opacity="0.8" stroke-width="4.20188"/>
<path d="M449.063 801.939C447.729 801.939 446.541 801.71 445.497 801.253C444.46 800.795 443.635 800.158 443.022 799.343C442.416 798.522 442.086 797.569 442.032 796.485H444.578C444.632 797.152 444.861 797.727 445.265 798.212C445.669 798.69 446.197 799.061 446.85 799.323C447.504 799.586 448.228 799.717 449.022 799.717C449.911 799.717 450.699 799.562 451.386 799.253C452.073 798.943 452.611 798.512 453.002 797.96C453.393 797.407 453.588 796.768 453.588 796.04C453.588 795.28 453.399 794.609 453.022 794.03C452.645 793.445 452.093 792.987 451.366 792.657C450.638 792.327 449.749 792.162 448.699 792.162H447.042V789.939H448.699C449.52 789.939 450.241 789.791 450.861 789.495C451.487 789.199 451.975 788.781 452.325 788.243C452.682 787.704 452.861 787.071 452.861 786.344C452.861 785.643 452.706 785.034 452.396 784.515C452.086 783.997 451.648 783.593 451.083 783.303C450.524 783.014 449.864 782.869 449.103 782.869C448.389 782.869 447.716 783 447.083 783.263C446.456 783.519 445.945 783.892 445.547 784.384C445.15 784.869 444.935 785.455 444.901 786.141H442.477C442.517 785.057 442.844 784.108 443.456 783.293C444.069 782.471 444.871 781.832 445.861 781.374C446.857 780.916 447.951 780.687 449.143 780.687C450.423 780.687 451.52 780.946 452.436 781.465C453.352 781.977 454.056 782.653 454.547 783.495C455.039 784.337 455.285 785.246 455.285 786.222C455.285 787.387 454.978 788.381 454.366 789.202C453.76 790.024 452.935 790.593 451.891 790.909V791.071C453.197 791.286 454.217 791.842 454.951 792.737C455.685 793.626 456.052 794.727 456.052 796.04C456.052 797.165 455.746 798.175 455.133 799.071C454.527 799.96 453.699 800.66 452.648 801.172C451.598 801.684 450.403 801.939 449.063 801.939ZM469.776 801.939C468.254 801.939 466.957 801.525 465.887 800.697C464.816 799.862 463.998 798.653 463.432 797.071C462.867 795.482 462.584 793.562 462.584 791.313C462.584 789.078 462.867 787.168 463.432 785.586C464.005 783.997 464.826 782.785 465.897 781.95C466.974 781.108 468.267 780.687 469.776 780.687C471.284 780.687 472.574 781.108 473.644 781.95C474.722 782.785 475.543 783.997 476.109 785.586C476.681 787.168 476.968 789.078 476.968 791.313C476.968 793.562 476.685 795.482 476.119 797.071C475.553 798.653 474.735 799.862 473.665 800.697C472.594 801.525 471.298 801.939 469.776 801.939ZM469.776 799.717C471.284 799.717 472.456 798.99 473.291 797.535C474.126 796.081 474.543 794.007 474.543 791.313C474.543 789.522 474.351 787.997 473.968 786.737C473.59 785.478 473.045 784.519 472.331 783.859C471.624 783.199 470.772 782.869 469.776 782.869C468.281 782.869 467.112 783.606 466.271 785.081C465.429 786.549 465.008 788.626 465.008 791.313C465.008 793.104 465.197 794.626 465.574 795.879C465.951 797.131 466.493 798.084 467.2 798.737C467.914 799.391 468.772 799.717 469.776 799.717ZM511.262 780.97V801.657H508.838L497.565 785.414H497.363V801.657H494.858V780.97H497.283L508.596 797.253H508.798V780.97H511.262Z" fill="white" fill-opacity="0.8"/>
<path d="M445.497 801.253L445.42 801.426L445.421 801.426L445.497 801.253ZM443.022 799.343L442.87 799.456L442.871 799.457L443.022 799.343ZM442.032 796.485V796.295H441.833L441.843 796.494L442.032 796.485ZM444.578 796.485L444.767 796.47L444.753 796.295H444.578V796.485ZM445.265 798.212L445.119 798.334L445.12 798.335L445.265 798.212ZM446.85 799.323L446.78 799.499L446.85 799.323ZM453.002 797.96L452.847 797.85L453.002 797.96ZM453.022 794.03L452.863 794.133L452.863 794.134L453.022 794.03ZM451.366 792.657L451.287 792.829L451.366 792.657ZM447.042 792.162H446.853V792.351H447.042V792.162ZM447.042 789.939V789.75H446.853V789.939H447.042ZM450.861 789.495L450.779 789.324L450.779 789.324L450.861 789.495ZM452.325 788.243L452.167 788.138L452.166 788.139L452.325 788.243ZM452.396 784.515L452.559 784.418L452.396 784.515ZM451.083 783.303L450.996 783.471L450.996 783.472L451.083 783.303ZM447.083 783.263L447.154 783.438L447.155 783.438L447.083 783.263ZM445.547 784.384L445.694 784.504L445.695 784.503L445.547 784.384ZM444.901 786.141V786.331H445.082L445.09 786.151L444.901 786.141ZM442.477 786.141L442.287 786.134L442.28 786.331H442.477V786.141ZM443.456 783.293L443.608 783.407L443.608 783.406L443.456 783.293ZM445.861 781.374L445.781 781.202L445.781 781.202L445.861 781.374ZM452.436 781.465L452.343 781.63L452.344 781.63L452.436 781.465ZM454.547 783.495L454.384 783.591L454.547 783.495ZM454.366 789.202L454.214 789.089L454.213 789.09L454.366 789.202ZM451.891 790.909L451.836 790.728L451.701 790.769V790.909H451.891ZM451.891 791.071H451.701V791.232L451.86 791.258L451.891 791.071ZM454.951 792.737L454.805 792.858L454.805 792.858L454.951 792.737ZM455.133 799.071L454.977 798.964L454.977 798.964L455.133 799.071ZM452.648 801.172L452.731 801.342L452.648 801.172ZM449.063 801.75C447.751 801.75 446.589 801.525 445.573 801.079L445.421 801.426C446.492 801.896 447.707 802.129 449.063 802.129V801.75ZM445.573 801.079C444.563 800.633 443.765 800.016 443.174 799.23L442.871 799.457C443.505 800.301 444.357 800.957 445.42 801.426L445.573 801.079ZM443.175 799.231C442.592 798.441 442.274 797.525 442.222 796.476L441.843 796.494C441.898 797.613 442.24 798.603 442.87 799.456L443.175 799.231ZM442.032 796.675H444.578V796.295H442.032V796.675ZM444.389 796.5C444.446 797.203 444.688 797.817 445.119 798.334L445.41 798.091C445.033 797.638 444.818 797.1 444.767 796.47L444.389 796.5ZM445.12 798.335C445.546 798.839 446.101 799.227 446.78 799.499L446.921 799.147C446.293 798.895 445.791 798.541 445.409 798.09L445.12 798.335ZM446.78 799.499C447.458 799.772 448.206 799.907 449.022 799.907V799.528C448.249 799.528 447.549 799.4 446.921 799.147L446.78 799.499ZM449.022 799.907C449.933 799.907 450.748 799.748 451.464 799.425L451.308 799.08C450.649 799.377 449.889 799.528 449.022 799.528V799.907ZM451.464 799.425C452.178 799.103 452.744 798.652 453.157 798.069L452.847 797.85C452.478 798.372 451.967 798.782 451.308 799.08L451.464 799.425ZM453.157 798.069C453.572 797.482 453.777 796.804 453.777 796.04H453.398C453.398 796.732 453.213 797.332 452.847 797.85L453.157 798.069ZM453.777 796.04C453.777 795.247 453.58 794.54 453.181 793.927L452.863 794.134C453.218 794.679 453.398 795.312 453.398 796.04H453.777ZM453.182 793.928C452.782 793.307 452.199 792.827 451.444 792.484L451.287 792.829C451.986 793.146 452.508 793.582 452.863 794.133L453.182 793.928ZM451.444 792.484C450.686 792.14 449.768 791.972 448.699 791.972V792.351C449.731 792.351 450.591 792.513 451.287 792.829L451.444 792.484ZM448.699 791.972H447.042V792.351H448.699V791.972ZM447.232 792.162V789.939H446.853V792.162H447.232ZM447.042 790.129H448.699V789.75H447.042V790.129ZM448.699 790.129C449.543 790.129 450.293 789.977 450.942 789.666L450.779 789.324C450.189 789.606 449.498 789.75 448.699 789.75V790.129ZM450.942 789.666C451.597 789.356 452.113 788.916 452.484 788.346L452.166 788.139C451.837 788.646 451.376 789.041 450.779 789.324L450.942 789.666ZM452.483 788.347C452.863 787.774 453.05 787.103 453.05 786.344H452.671C452.671 787.038 452.501 787.634 452.167 788.138L452.483 788.347ZM453.05 786.344C453.05 785.614 452.889 784.97 452.559 784.418L452.233 784.612C452.523 785.097 452.671 785.672 452.671 786.344H453.05ZM452.559 784.418C452.23 783.867 451.765 783.439 451.169 783.134L450.996 783.472C451.532 783.746 451.943 784.126 452.233 784.612L452.559 784.418ZM451.17 783.135C450.579 782.829 449.888 782.679 449.103 782.679V783.058C449.84 783.058 450.469 783.199 450.996 783.471L451.17 783.135ZM449.103 782.679C448.365 782.679 447.667 782.815 447.01 783.088L447.155 783.438C447.764 783.185 448.413 783.058 449.103 783.058V782.679ZM447.011 783.087C446.357 783.354 445.819 783.747 445.4 784.265L445.695 784.503C446.071 784.038 446.556 783.683 447.154 783.438L447.011 783.087ZM445.401 784.264C444.975 784.783 444.747 785.409 444.712 786.132L445.09 786.151C445.122 785.5 445.325 784.954 445.694 784.504L445.401 784.264ZM444.901 785.952H442.477V786.331H444.901V785.952ZM442.666 786.149C442.705 785.1 443.02 784.189 443.608 783.407L443.305 783.179C442.667 784.027 442.329 785.014 442.287 786.134L442.666 786.149ZM443.608 783.406C444.201 782.612 444.977 781.991 445.94 781.546L445.781 781.202C444.764 781.672 443.937 782.331 443.304 783.18L443.608 783.406ZM445.94 781.546C446.909 781.101 447.976 780.877 449.143 780.877V780.497C447.927 780.497 446.805 780.731 445.781 781.202L445.94 781.546ZM449.143 780.877C450.397 780.877 451.461 781.131 452.343 781.63L452.53 781.3C451.58 780.762 450.449 780.497 449.143 780.497V780.877ZM452.344 781.63C453.232 782.127 453.91 782.78 454.384 783.591L454.711 783.399C454.201 782.526 453.472 781.826 452.529 781.299L452.344 781.63ZM454.384 783.591C454.858 784.403 455.095 785.279 455.095 786.222H455.474C455.474 785.212 455.22 784.27 454.711 783.399L454.384 783.591ZM455.095 786.222C455.095 787.352 454.799 788.304 454.214 789.089L454.518 789.315C455.158 788.457 455.474 787.422 455.474 786.222H455.095ZM454.213 789.09C453.633 789.876 452.843 790.422 451.836 790.728L451.946 791.091C453.026 790.763 453.886 790.171 454.518 789.315L454.213 789.09ZM451.701 790.909V791.071H452.08V790.909H451.701ZM451.86 791.258C453.128 791.467 454.104 792.003 454.805 792.858L455.098 792.617C454.331 791.681 453.267 791.106 451.922 790.884L451.86 791.258ZM454.805 792.858C455.507 793.708 455.863 794.765 455.863 796.04H456.242C456.242 794.69 455.864 793.544 455.098 792.617L454.805 792.858ZM455.863 796.04C455.863 797.128 455.567 798.101 454.977 798.964L455.29 799.178C455.925 798.249 456.242 797.202 456.242 796.04H455.863ZM454.977 798.964C454.391 799.823 453.589 800.503 452.565 801.001L452.731 801.342C453.809 800.817 454.664 800.096 455.29 799.178L454.977 798.964ZM452.565 801.001C451.544 801.499 450.378 801.75 449.063 801.75V802.129C450.427 802.129 451.652 801.868 452.731 801.342L452.565 801.001ZM465.887 800.697L465.77 800.847L465.771 800.847L465.887 800.697ZM463.432 797.071L463.254 797.134L463.254 797.135L463.432 797.071ZM463.432 785.586L463.254 785.522L463.254 785.522L463.432 785.586ZM465.897 781.95L466.013 782.099L466.014 782.099L465.897 781.95ZM473.644 781.95L473.527 782.099L473.528 782.099L473.644 781.95ZM476.109 785.586L475.93 785.65L475.931 785.65L476.109 785.586ZM476.119 797.071L476.298 797.135L476.298 797.134L476.119 797.071ZM473.665 800.697L473.781 800.847L473.781 800.847L473.665 800.697ZM473.291 797.535L473.126 797.441L473.291 797.535ZM473.968 786.737L473.786 786.792L473.786 786.793L473.968 786.737ZM472.331 783.859L472.202 783.997L472.202 783.998L472.331 783.859ZM466.271 785.081L466.435 785.175L466.435 785.175L466.271 785.081ZM465.574 795.879L465.392 795.934L465.574 795.879ZM467.2 798.737L467.071 798.877L467.072 798.877L467.2 798.737ZM469.776 801.75C468.29 801.75 467.036 801.346 466.003 800.547L465.771 800.847C466.879 801.704 468.217 802.129 469.776 802.129V801.75ZM466.003 800.547C464.967 799.739 464.167 798.564 463.611 797.007L463.254 797.135C463.829 798.743 464.665 799.985 465.77 800.847L466.003 800.547ZM463.611 797.007C463.054 795.444 462.773 793.547 462.773 791.313H462.394C462.394 793.577 462.679 795.519 463.254 797.134L463.611 797.007ZM462.773 791.313C462.773 789.093 463.054 787.206 463.611 785.65L463.254 785.522C462.679 787.131 462.394 789.063 462.394 791.313H462.773ZM463.611 785.65C464.174 784.086 464.977 782.907 466.013 782.099L465.78 781.8C464.675 782.662 463.835 783.907 463.254 785.522L463.611 785.65ZM466.014 782.099C467.054 781.286 468.305 780.877 469.776 780.877V780.497C468.23 780.497 466.894 780.93 465.78 781.8L466.014 782.099ZM469.776 780.877C471.246 780.877 472.493 781.286 473.527 782.099L473.762 781.801C472.654 780.93 471.322 780.497 469.776 780.497V780.877ZM473.528 782.099C474.571 782.908 475.374 784.086 475.93 785.65L476.288 785.522C475.713 783.907 474.873 782.662 473.76 781.8L473.528 782.099ZM475.931 785.65C476.494 787.207 476.778 789.093 476.778 791.313H477.157C477.157 789.062 476.869 787.13 476.287 785.521L475.931 785.65ZM476.778 791.313C476.778 793.547 476.497 795.444 475.94 797.007L476.298 797.134C476.873 795.519 477.157 793.577 477.157 791.313H476.778ZM475.94 797.007C475.384 798.564 474.584 799.739 473.548 800.547L473.781 800.847C474.886 799.985 475.723 798.743 476.298 797.135L475.94 797.007ZM473.548 800.547C472.515 801.346 471.261 801.75 469.776 801.75V802.129C471.334 802.129 472.673 801.704 473.781 800.847L473.548 800.547ZM469.776 799.907C471.361 799.907 472.591 799.135 473.455 797.63L473.126 797.441C472.321 798.845 471.207 799.528 469.776 799.528V799.907ZM473.455 797.63C474.314 796.134 474.733 794.022 474.733 791.313H474.354C474.354 793.992 473.938 796.028 473.126 797.441L473.455 797.63ZM474.733 791.313C474.733 789.509 474.54 787.964 474.149 786.682L473.786 786.793C474.163 788.029 474.354 789.534 474.354 791.313H474.733ZM474.149 786.683C473.766 785.402 473.206 784.409 472.46 783.719L472.202 783.998C472.884 784.628 473.415 785.554 473.786 786.792L474.149 786.683ZM472.461 783.72C471.717 783.026 470.819 782.679 469.776 782.679V783.058C470.726 783.058 471.531 783.371 472.202 783.997L472.461 783.72ZM469.776 782.679C468.202 782.679 466.976 783.463 466.106 784.987L466.435 785.175C467.249 783.75 468.359 783.058 469.776 783.058V782.679ZM466.106 784.987C465.241 786.495 464.818 788.611 464.818 791.313H465.198C465.198 788.642 465.617 786.602 466.435 785.175L466.106 784.987ZM464.818 791.313C464.818 793.117 465.008 794.658 465.392 795.934L465.755 795.824C465.385 794.595 465.198 793.092 465.198 791.313H464.818ZM465.392 795.934C465.776 797.207 466.332 798.194 467.071 798.877L467.329 798.598C466.654 797.975 466.126 797.055 465.755 795.824L465.392 795.934ZM467.072 798.877C467.822 799.564 468.727 799.907 469.776 799.907V799.528C468.818 799.528 468.005 799.217 467.328 798.598L467.072 798.877ZM511.262 780.97H511.452V780.78H511.262V780.97ZM511.262 801.657V801.846H511.452V801.657H511.262ZM508.838 801.657L508.682 801.765L508.739 801.846H508.838V801.657ZM497.565 785.414L497.721 785.306L497.665 785.225H497.565V785.414ZM497.363 785.414V785.225H497.174V785.414H497.363ZM497.363 801.657V801.846H497.553V801.657H497.363ZM494.858 801.657H494.669V801.846H494.858V801.657ZM494.858 780.97V780.78H494.669V780.97H494.858ZM497.283 780.97L497.438 780.862L497.382 780.78H497.283V780.97ZM508.596 797.253L508.44 797.361L508.497 797.442H508.596V797.253ZM508.798 797.253V797.442H508.987V797.253H508.798ZM508.798 780.97V780.78H508.608V780.97H508.798ZM511.073 780.97V801.657H511.452V780.97H511.073ZM511.262 801.467H508.838V801.846H511.262V801.467ZM508.994 801.548L497.721 785.306L497.41 785.522L508.682 801.765L508.994 801.548ZM497.565 785.225H497.363V785.604H497.565V785.225ZM497.174 785.414V801.657H497.553V785.414H497.174ZM497.363 801.467H494.858V801.846H497.363V801.467ZM495.048 801.657V780.97H494.669V801.657H495.048ZM494.858 781.159H497.283V780.78H494.858V781.159ZM497.127 781.078L508.44 797.361L508.751 797.144L497.438 780.862L497.127 781.078ZM508.596 797.442H508.798V797.063H508.596V797.442ZM508.987 797.253V780.97H508.608V797.253H508.987ZM508.798 781.159H511.262V780.78H508.798V781.159Z" fill="white" fill-opacity="0.8"/>
<path d="M230.528 214.807L241.323 193.453V193.265H228.879V190.672H244.34V193.406L233.592 214.807H230.528ZM252.051 214.807V212.685L260.017 203.965C260.952 202.944 261.722 202.056 262.327 201.302C262.932 200.54 263.38 199.825 263.671 199.157C263.969 198.481 264.118 197.774 264.118 197.036C264.118 196.187 263.914 195.453 263.506 194.832C263.105 194.211 262.555 193.732 261.856 193.394C261.156 193.056 260.371 192.887 259.499 192.887C258.572 192.887 257.763 193.08 257.071 193.465C256.388 193.842 255.857 194.372 255.48 195.056C255.111 195.739 254.926 196.541 254.926 197.46H252.145C252.145 196.046 252.471 194.804 253.123 193.736C253.775 192.668 254.663 191.835 255.787 191.238C256.918 190.641 258.187 190.342 259.593 190.342C261.007 190.342 262.26 190.641 263.352 191.238C264.444 191.835 265.301 192.64 265.921 193.653C266.542 194.667 266.852 195.794 266.852 197.036C266.852 197.923 266.691 198.792 266.369 199.64C266.055 200.481 265.505 201.419 264.719 202.456C263.942 203.486 262.861 204.743 261.479 206.228L256.058 212.026V212.214H267.277V214.807H252.051ZM307.676 190.672V214.807H304.848L291.696 195.857H291.461V214.807H288.538V190.672H291.366L304.565 209.669H304.801V190.672H307.676Z" fill="white" fill-opacity="0.8"/>
<path d="M230.528 214.807L230.359 214.721L230.22 214.996H230.528V214.807ZM241.323 193.453L241.492 193.539L241.513 193.498V193.453H241.323ZM241.323 193.265H241.513V193.075H241.323V193.265ZM228.879 193.265H228.689V193.454H228.879V193.265ZM228.879 190.672V190.482H228.689V190.672H228.879ZM244.34 190.672H244.529V190.482H244.34V190.672ZM244.34 193.406L244.509 193.491L244.529 193.451V193.406H244.34ZM233.592 214.807V214.996H233.709L233.762 214.892L233.592 214.807ZM230.698 214.892L241.492 193.539L241.154 193.368L230.359 214.721L230.698 214.892ZM241.513 193.453V193.265H241.133V193.453H241.513ZM241.323 193.075H228.879V193.454H241.323V193.075ZM229.068 193.265V190.672H228.689V193.265H229.068ZM228.879 190.862H244.34V190.482H228.879V190.862ZM244.15 190.672V193.406H244.529V190.672H244.15ZM244.17 193.321L233.423 214.722L233.762 214.892L244.509 193.491L244.17 193.321ZM233.592 214.617H230.528V214.996H233.592V214.617ZM252.051 214.807H251.861V214.996H252.051V214.807ZM252.051 212.685L251.911 212.558L251.861 212.612V212.685H252.051ZM260.017 203.965L259.877 203.837L259.877 203.837L260.017 203.965ZM262.327 201.302L262.475 201.42L262.476 201.42L262.327 201.302ZM263.671 199.157L263.497 199.08L263.497 199.081L263.671 199.157ZM263.506 194.832L263.346 194.935L263.347 194.936L263.506 194.832ZM261.856 193.394L261.938 193.223H261.938L261.856 193.394ZM257.071 193.465L257.163 193.631L257.163 193.631L257.071 193.465ZM255.48 195.056L255.314 194.964L255.313 194.966L255.48 195.056ZM254.926 197.46V197.65H255.116V197.46H254.926ZM252.145 197.46H251.956V197.65H252.145V197.46ZM253.123 193.736L253.285 193.835L253.123 193.736ZM255.787 191.238L255.698 191.07L255.698 191.07L255.787 191.238ZM263.352 191.238L263.443 191.071L263.352 191.238ZM265.921 193.653L265.76 193.753L265.921 193.653ZM266.369 199.64L266.192 199.573L266.192 199.574L266.369 199.64ZM264.719 202.456L264.568 202.342L264.568 202.342L264.719 202.456ZM261.479 206.228L261.617 206.357L261.617 206.357L261.479 206.228ZM256.058 212.026L255.919 211.896L255.868 211.951V212.026H256.058ZM256.058 212.214H255.868V212.404H256.058V212.214ZM267.277 212.214H267.466V212.024H267.277V212.214ZM267.277 214.807V214.996H267.466V214.807H267.277ZM252.241 214.807V212.685H251.861V214.807H252.241ZM252.191 212.813L260.157 204.093L259.877 203.837L251.911 212.558L252.191 212.813ZM260.157 204.093C261.094 203.07 261.867 202.179 262.475 201.42L262.179 201.183C261.578 201.933 260.811 202.817 259.877 203.837L260.157 204.093ZM262.476 201.42C263.088 200.649 263.545 199.92 263.844 199.233L263.497 199.081C263.214 199.73 262.776 200.431 262.179 201.184L262.476 201.42ZM263.844 199.233C264.153 198.534 264.308 197.801 264.308 197.036H263.929C263.929 197.748 263.785 198.429 263.497 199.08L263.844 199.233ZM264.308 197.036C264.308 196.156 264.096 195.384 263.664 194.728L263.347 194.936C263.733 195.522 263.929 196.219 263.929 197.036H264.308ZM263.665 194.729C263.244 194.078 262.667 193.576 261.938 193.223L261.773 193.565C262.443 193.888 262.965 194.345 263.346 194.935L263.665 194.729ZM261.938 193.223C261.21 192.872 260.396 192.698 259.499 192.698V193.077C260.346 193.077 261.103 193.241 261.773 193.565L261.938 193.223ZM259.499 192.698C258.545 192.698 257.703 192.896 256.979 193.299L257.163 193.631C257.822 193.264 258.598 193.077 259.499 193.077V192.698ZM256.98 193.299C256.265 193.693 255.709 194.249 255.314 194.964L255.646 195.147C256.006 194.495 256.511 193.991 257.163 193.631L256.98 193.299ZM255.313 194.966C254.927 195.682 254.737 196.515 254.737 197.46H255.116C255.116 196.566 255.295 195.797 255.647 195.146L255.313 194.966ZM254.926 197.27H252.145V197.65H254.926V197.27ZM252.335 197.46C252.335 196.076 252.654 194.87 253.285 193.835L252.962 193.637C252.289 194.739 251.956 196.016 251.956 197.46H252.335ZM253.285 193.835C253.919 192.796 254.782 191.987 255.876 191.405L255.698 191.07C254.545 191.683 253.632 192.539 252.962 193.637L253.285 193.835ZM255.875 191.405C256.977 190.824 258.215 190.532 259.593 190.532V190.152C258.159 190.152 256.859 190.457 255.698 191.07L255.875 191.405ZM259.593 190.532C260.98 190.532 262.201 190.824 263.261 191.404L263.443 191.071C262.32 190.457 261.035 190.152 259.593 190.152V190.532ZM263.261 191.404C264.326 191.986 265.157 192.769 265.76 193.753L266.083 193.554C265.444 192.511 264.563 191.683 263.443 191.071L263.261 191.404ZM265.76 193.753C266.361 194.735 266.663 195.828 266.663 197.036H267.042C267.042 195.761 266.723 194.599 266.083 193.554L265.76 193.753ZM266.663 197.036C266.663 197.9 266.506 198.745 266.192 199.573L266.546 199.707C266.877 198.838 267.042 197.947 267.042 197.036H266.663ZM266.192 199.574C265.886 200.391 265.347 201.314 264.568 202.342L264.87 202.571C265.663 201.525 266.224 200.57 266.547 199.706L266.192 199.574ZM264.568 202.342C263.796 203.364 262.72 204.616 261.34 206.098L261.617 206.357C263.002 204.87 264.087 203.607 264.871 202.571L264.568 202.342ZM261.34 206.098L255.919 211.896L256.196 212.155L261.617 206.357L261.34 206.098ZM255.868 212.026V212.214H256.247V212.026H255.868ZM256.058 212.404H267.277V212.024H256.058V212.404ZM267.087 212.214V214.807H267.466V212.214H267.087ZM267.277 214.617H252.051V214.996H267.277V214.617ZM307.676 190.672H307.866V190.482H307.676V190.672ZM307.676 214.807V214.996H307.866V214.807H307.676ZM304.848 214.807L304.692 214.915L304.749 214.996H304.848V214.807ZM291.696 195.857L291.852 195.749L291.796 195.668H291.696V195.857ZM291.461 195.857V195.668H291.271V195.857H291.461ZM291.461 214.807V214.996H291.65V214.807H291.461ZM288.538 214.807H288.349V214.996H288.538V214.807ZM288.538 190.672V190.482H288.349V190.672H288.538ZM291.366 190.672L291.522 190.564L291.466 190.482H291.366V190.672ZM304.565 209.669L304.409 209.777L304.466 209.858H304.565V209.669ZM304.801 209.669V209.858H304.99V209.669H304.801ZM304.801 190.672V190.482H304.611V190.672H304.801ZM307.487 190.672V214.807H307.866V190.672H307.487ZM307.676 214.617H304.848V214.996H307.676V214.617ZM305.004 214.699L291.852 195.749L291.541 195.965L304.692 214.915L305.004 214.699ZM291.696 195.668H291.461V196.047H291.696V195.668ZM291.271 195.857V214.807H291.65V195.857H291.271ZM291.461 214.617H288.538V214.996H291.461V214.617ZM288.728 214.807V190.672H288.349V214.807H288.728ZM288.538 190.862H291.366V190.482H288.538V190.862ZM291.211 190.78L304.409 209.777L304.721 209.56L291.522 190.564L291.211 190.78ZM304.565 209.858H304.801V209.479H304.565V209.858ZM304.99 209.669V190.672H304.611V209.669H304.99ZM304.801 190.862H307.676V190.482H304.801V190.862Z" fill="white" fill-opacity="0.8"/>
</svg>
