<svg width="47" height="48" viewBox="0 0 47 48" fill="none" xmlns="http://www.w3.org/2000/svg">
<g clip-path="url(#clip0_210_306)">
<path fill-rule="evenodd" clip-rule="evenodd" d="M29.715 23.3199C25.8948 21.1421 19.5935 20.942 15.9461 22.0049C15.3604 22.1755 14.7412 21.8579 14.5644 21.2957C14.3866 20.7334 14.7165 20.1389 15.3032 19.9682C19.4898 18.748 26.4488 18.9841 30.8469 21.49C31.3733 21.7906 31.5461 22.4429 31.234 22.9483C30.9219 23.4536 30.2414 23.6205 29.715 23.3199ZM29.5906 26.5465C29.3219 26.9637 28.754 27.0945 28.3194 26.8385C25.1343 24.9593 20.278 24.4141 16.5091 25.512C16.0212 25.6543 15.5046 25.3897 15.3565 24.9214C15.2093 24.452 15.4849 23.958 15.9728 23.8149C20.277 22.5614 25.6281 23.1682 29.2864 25.3272C29.7209 25.5832 29.8572 26.1302 29.5906 26.5465ZM28.1397 29.6441C27.9274 29.9797 27.472 30.0849 27.1244 29.8801C24.3412 28.2474 20.838 27.8786 16.7125 28.7831C16.3155 28.8704 15.9194 28.6314 15.8286 28.2503C15.7377 27.8682 15.9856 27.488 16.3836 27.4008C20.8982 26.4099 24.7708 26.8366 27.8948 28.6694C28.2434 28.8732 28.353 29.3103 28.1397 29.6441ZM22.7046 13.2336C16.1594 13.2336 10.8528 18.328 10.8528 24.6113C10.8528 30.8956 16.1594 35.989 22.7046 35.989C29.2508 35.989 34.5565 30.8956 34.5565 24.6113C34.5565 18.328 29.2508 13.2336 22.7046 13.2336Z" fill="#4A1B00"/>
</g>
<path d="M46.4083 24.1372C46.4083 36.7047 36.2203 46.8927 23.6527 46.8927C11.0852 46.8927 0.897169 36.7047 0.897169 24.1372C0.897169 11.5698 11.0852 1.38179 23.6527 1.38179C36.2203 1.38179 46.4083 11.5698 46.4083 24.1372Z" stroke="#4A1B00" stroke-width="0.948146"/>
<defs>
<clipPath id="clip0_210_306">
<rect width="23.7037" height="22.7555" fill="white" transform="translate(10.8528 13.2336)"/>
</clipPath>
</defs>
</svg>
