<svg width="1263" height="886" viewBox="0 0 1263 886" fill="none" xmlns="http://www.w3.org/2000/svg">
<path d="M608.8 309.366C604.181 315.628 594.944 328.153 583.948 340.453C572.951 352.754 560.196 364.831 548.1 374.224C536.005 383.617 524.569 390.326 512.473 396.589C500.377 402.851 487.621 408.666 468.707 419.178C449.792 429.689 424.721 444.897 403.168 455.633C381.616 466.368 363.582 472.63 344.449 477.774C325.315 482.918 305.082 486.944 289.247 490.969C273.411 494.995 261.975 499.021 249.659 504.389C237.342 509.756 224.147 516.466 206.991 531.227C189.836 545.989 168.723 568.801 152.228 589.378C135.733 609.954 123.857 628.293 108.022 652.001C92.1874 675.708 72.3942 704.782 54.3599 736.541C36.3255 768.301 20.0511 802.742 11.2544 833.607C2.45759 864.473 1.13806 891.757 4.21798 916.583C7.29791 941.409 14.7753 963.774 24.4529 984.574C34.1306 1005.37 46.0065 1024.61 57.4427 1044.74C68.8789 1064.86 79.8751 1085.89 97.2505 1106.69C114.626 1127.49 138.378 1148.06 160.811 1164.39C183.244 1180.71 204.357 1192.79 227.67 1205.09C250.982 1217.39 276.493 1229.92 300.245 1236.63C323.998 1243.33 345.99 1244.23 367.763 1248.7C389.537 1253.18 411.089 1261.23 440.56 1271.96C470.031 1282.7 507.418 1296.12 543.927 1307.3C580.435 1318.48 616.063 1327.43 647.292 1330.78C678.522 1334.14 705.352 1331.9 727.565 1328.99C749.778 1326.08 767.372 1322.51 787.825 1316.02C808.278 1309.53 831.59 1300.14 854.902 1288.73C878.214 1277.33 901.526 1263.91 919.12 1250.71C936.713 1237.52 948.589 1224.55 958.926 1211.13C969.262 1197.71 978.059 1183.84 988.396 1166.85C998.733 1149.85 1010.61 1129.72 1024.9 1109.37C1039.2 1089.01 1055.91 1068.44 1075.05 1045.85C1094.18 1023.26 1115.73 998.66 1138.61 974.281C1161.48 949.903 1185.67 925.749 1211.18 898.463C1236.7 871.178 1263.53 840.762 1285.74 815.936C1307.95 791.11 1325.55 771.877 1342.92 756.221C1360.3 740.565 1377.45 728.488 1396.8 715.739C1416.16 702.991 1437.71 689.572 1463 670.785C1488.29 651.999 1517.32 627.845 1534.92 609.506C1552.51 591.168 1558.67 578.643 1563.73 560.304C1568.79 541.965 1572.75 517.812 1575.17 493.657C1577.58 469.503 1578.46 445.349 1577.15 423.431C1575.83 401.514 1572.31 381.833 1563.73 359.244C1555.15 336.655 1541.52 311.159 1527 280.966C1512.49 250.772 1497.09 215.883 1479.94 191.505C1462.79 167.126 1443.87 153.26 1423.42 139.169C1402.97 125.079 1380.97 110.765 1357.66 95.7806C1334.35 80.7958 1309.72 65.1405 1289.04 54.6281C1268.37 44.1157 1251.66 38.7482 1235.16 34.0513C1218.67 29.3544 1202.39 25.3287 1184.8 21.9736C1167.2 18.6186 1148.29 15.9348 1129.38 12.5802C1110.46 9.22559 1091.55 5.2 1074.39 3.41015C1057.24 1.62029 1041.84 2.06732 1026.23 4.30351C1010.61 6.53967 994.777 10.5653 974.763 15.933C954.75 21.3007 930.558 28.0101 907.905 34.9434C885.252 41.8766 864.139 49.0333 840.826 60.4397C817.513 71.8462 792.001 87.5016 773.307 100.921C754.612 114.341 742.736 125.523 731.3 140.061C719.863 154.599 708.867 172.491 696.331 190.607C683.795 208.723 669.72 227.062 655.644 245.849C641.569 264.636 627.494 283.869 620.456 293.486C613.419 303.102 613.419 303.103 608.8 309.366Z" stroke="#E5E1D5" stroke-width="3.46707"/>
<path d="M713.013 271.293C692.175 299.76 677.245 323.798 662.316 343.407C647.387 363.017 632.458 378.199 614.108 394.646C595.757 411.093 573.986 428.805 554.391 443.67C534.797 458.536 517.38 470.555 492.809 481.309C468.239 492.062 436.515 501.551 405.1 513.254C373.686 524.957 342.584 538.873 313.659 550.26C284.734 561.646 257.986 570.503 235.59 586.951C213.195 603.399 195.156 627.437 175.872 655.587C156.588 683.738 136.061 715.999 120.199 760.281C104.336 804.563 93.1396 860.862 93.763 904.511C94.3865 948.16 106.827 979.156 125.801 1005.09C144.775 1031.03 170.279 1051.9 203.559 1071.83C236.84 1091.75 277.894 1110.73 307.441 1120.22C336.988 1129.71 355.028 1129.71 376.489 1136.98C397.951 1144.26 422.832 1158.81 449.892 1174.31C476.951 1189.8 506.187 1206.25 531.38 1215.42C556.573 1224.59 577.722 1226.49 603.538 1227.12C629.353 1227.76 659.833 1227.12 695.289 1221.75C730.746 1216.37 771.179 1206.25 805.702 1191.7C840.225 1177.15 868.839 1158.17 888.433 1137.61C908.027 1117.06 918.601 1094.92 932.598 1071.19C946.594 1047.47 964.011 1022.17 1004.13 977.886C1044.26 933.604 1107.08 870.347 1150.63 826.699C1194.17 783.051 1218.43 759.013 1240.51 740.035C1262.6 721.057 1282.5 707.141 1308.94 686.898C1335.38 666.655 1368.35 640.087 1396.65 618.895C1424.95 597.704 1448.59 581.889 1461.65 565.128C1474.72 548.366 1477.2 530.654 1479.07 512.309C1480.94 493.964 1482.18 474.987 1480.63 455.061C1479.07 435.135 1474.72 414.26 1467.56 389.273C1460.41 364.285 1450.46 335.187 1437.08 306.721C1423.71 278.254 1406.92 250.421 1385.57 225.315C1364.23 200.209 1340.36 179.571 1312.68 161.542C1284.99 143.512 1254.51 128.963 1220.92 116.311C1187.33 103.659 1150.63 92.9052 1117.66 85.3138C1084.69 77.7224 1055.46 73.2943 1023.73 78.6708C992.005 84.0472 957.793 99.2288 927.099 110.19C896.405 121.151 872.573 127.063 849.867 137.5C827.161 147.938 807.255 162.487 783.928 186.21C760.6 209.933 733.852 242.827 713.013 271.293Z" stroke="#E5E1D5" stroke-width="3.46707"/>
<path d="M1067.27 637.598C1204.03 637.598 1314.89 544.826 1314.89 430.386C1314.89 315.946 1204.03 223.174 1067.27 223.174C930.518 223.174 819.656 315.946 819.656 430.386C819.656 544.826 930.518 637.598 1067.27 637.598Z" stroke="#E5E1D5" stroke-width="3.91499"/>
<path d="M783.617 492.063C789.839 511.678 796.06 531.288 803.214 547.419C810.369 563.55 818.455 576.201 829.653 586.954C840.851 597.707 855.158 606.563 872.887 615.419C890.615 624.275 911.765 633.131 928.56 642.304C945.355 651.477 957.796 660.966 961.215 671.087C964.633 681.207 959.035 691.961 947.529 695.123C936.024 698.286 918.607 693.858 900.256 684.686C881.906 675.515 862.622 661.598 845.827 649.895C829.031 638.192 814.724 628.704 801.972 618.899C789.22 609.094 778.023 598.973 764.649 589.8C751.275 580.627 735.724 572.403 721.727 561.65C707.731 550.897 695.29 537.613 690.311 525.277C685.332 512.941 687.821 501.555 690.309 490.485C692.797 479.414 695.285 468.661 690.472 460.746C685.659 452.831 676.629 449.049 667.298 446.202C657.967 443.355 649.881 442.09 643.346 446.519C636.812 450.947 631.836 461.068 631.526 470.559C631.217 480.049 635.571 488.905 639.615 495.863C643.659 502.822 647.391 507.882 645.212 517.369C643.033 526.857 634.946 540.773 625.306 549.312C615.666 557.851 604.469 561.014 593.27 564.177" stroke="#E5E1D5" stroke-width="3.46707"/>
<path d="M1020.62 666.656C1036.8 668.554 1052.97 670.452 1071.63 671.084C1090.29 671.716 1111.44 671.084 1134.15 664.125C1156.85 657.166 1181.11 643.882 1194.8 638.507C1208.48 633.132 1211.59 635.663 1214.08 640.724C1216.57 645.785 1218.43 653.376 1214.39 661.281C1210.34 669.186 1200.39 677.409 1187.95 683.735C1175.51 690.061 1160.58 694.489 1145.34 697.335C1130.1 700.182 1114.55 701.447 1100.87 701.132C1087.18 700.816 1075.36 698.918 1061.68 697.653C1047.99 696.387 1032.44 695.755 1021.56 695.438C1010.67 695.122 1004.45 695.122 998.227 697.652C992.004 700.183 985.784 705.243 982.985 709.99C980.186 714.736 980.808 719.165 988.275 722.958C995.742 726.752 1010.05 729.915 1023.11 731.812C1036.17 733.71 1047.99 734.342 1058.88 734.658C1069.76 734.975 1079.72 734.975 1091.23 734.658C1102.73 734.342 1115.8 733.709 1124.51 733.71C1133.21 733.71 1137.57 734.343 1139.74 738.456C1141.92 742.57 1141.92 750.161 1132.59 755.852C1123.26 761.542 1104.6 765.338 1089.26 765.608C1073.93 765.878 1067.28 764.075 1056.7 764.39C1046.13 764.706 1034.31 767.868 1025.91 773.879C1017.51 779.89 1012.53 788.746 1007.56 797.6" stroke="#E5E1D5" stroke-width="3.46707"/>
<path d="M1250.16 619.212C1261.98 610.988 1273.79 602.765 1283.75 594.225C1293.7 585.686 1301.79 576.83 1310.81 562.597C1319.82 548.364 1329.78 528.755 1335.38 511.992C1340.97 495.229 1342.22 481.313 1343.46 468.977C1344.71 456.642 1345.95 445.888 1349.06 438.295C1352.17 430.703 1357.15 426.275 1362.44 427.542C1367.73 428.809 1373.33 435.768 1376.43 446.522C1379.54 457.275 1380.16 471.825 1376.43 489.536C1372.7 507.248 1364.61 528.123 1356.21 545.518C1347.82 562.914 1339.11 576.83 1331.02 587.584C1322.94 598.337 1315.47 605.928 1308.94 610.356C1302.41 614.783 1296.81 616.049 1292.77 621.427C1288.72 626.806 1286.23 636.295 1285.61 645.784C1284.99 655.274 1286.24 664.762 1281.88 670.453C1277.53 676.144 1267.58 678.042 1257.31 680.888C1247.05 683.735 1236.47 687.53 1226.21 692.591C1215.94 697.652 1205.99 703.978 1201.95 709.357C1197.91 714.737 1199.77 719.165 1210.66 717.264C1221.54 715.364 1241.45 707.14 1261.35 698.917" stroke="#E5E1D5" stroke-width="3.46707"/>
<path d="M779.885 423.744C782.373 408.566 784.861 393.384 788.593 378.517C792.325 363.651 797.301 349.102 804.144 334.236C810.987 319.37 819.695 304.188 828.405 294.065C837.115 283.943 845.823 278.882 857.954 272.24C870.084 265.598 885.635 257.374 902.43 246.621C919.225 235.867 937.264 222.583 946.284 212.78C955.303 202.977 955.303 196.651 950.067 192.066C944.831 187.481 936.647 185.262 926.07 187.159C915.493 189.056 903.674 195.381 896.831 202.658C889.987 209.935 888.121 218.158 877.858 227.961C867.595 237.765 848.933 249.151 834.315 257.375C819.697 265.598 809.123 270.659 798.236 280.148C787.349 289.638 776.152 303.555 769.309 318.105C762.467 332.656 759.979 347.838 758.424 362.071C756.869 376.305 756.247 389.589 755.625 401.924C755.003 414.259 754.381 425.646 754.692 437.981C755.003 450.317 756.247 463.601 759.669 476.886C763.092 490.17 768.69 503.454 769.31 514.523C769.931 525.592 765.577 534.448 760.292 538.875C755.007 543.302 748.786 543.302 742.255 541.406C735.724 539.509 728.881 535.714 725.147 529.072C721.412 522.431 720.79 512.942 721.101 502.504C721.412 492.066 722.656 480.68 721.724 471.192C720.792 461.704 717.682 454.113 711.151 445.256C704.62 436.4 694.668 426.279 685.959 418.055C677.251 409.831 669.786 403.505 670.095 394.331C670.403 385.158 678.49 373.139 686.265 363.017C694.041 352.895 701.506 344.672 711.459 333.285C721.412 321.899 733.852 307.35 746.916 289.954C759.979 272.558 773.663 252.316 785.173 239.663C796.682 227.01 806.012 221.95 816.276 215.624C826.539 209.298 837.736 201.707 852.666 190.953C867.595 180.2 886.256 166.283 904.919 158.692C923.583 151.101 942.244 149.836 958.416 145.724C974.588 141.612 988.273 134.653 1000.72 129.909C1013.16 125.165 1024.35 122.634 1036.17 121.686C1047.99 120.738 1060.43 121.371 1072.56 122.636C1084.69 123.901 1096.51 125.799 1111.75 129.595C1126.99 133.391 1145.66 139.084 1164.31 144.775" stroke="#E5E1D5" stroke-width="3.46707"/>
<path d="M1350.93 404.767C1345.95 387.059 1340.98 369.347 1335.38 352.267C1329.78 335.187 1323.56 318.74 1316.72 307.669C1309.88 296.598 1302.41 290.905 1289.35 279.835C1276.29 268.765 1257.62 252.318 1245.18 243.145C1232.74 233.971 1226.52 232.073 1213.77 227.013C1201.02 221.952 1181.74 213.729 1164.01 209.3C1146.28 204.871 1130.1 204.238 1111.13 204.238C1092.16 204.238 1070.39 204.871 1052.66 204.555C1034.93 204.238 1021.25 202.973 1012.85 197.282C1004.45 191.591 1001.34 181.47 1002.27 172.612C1003.2 163.754 1008.18 156.163 1021.24 153.632C1034.31 151.102 1055.46 153.632 1076.3 157.428C1097.14 161.224 1117.66 166.284 1139.12 167.865C1160.58 169.446 1182.98 167.548 1201.33 167.865C1219.68 168.182 1233.99 170.712 1248.92 174.825C1263.85 178.937 1279.4 184.63 1294.02 193.804C1308.63 202.977 1322.32 215.628 1337.56 235.872C1352.8 256.115 1369.59 283.948 1382.34 309.568C1395.1 335.188 1403.8 358.593 1410.02 377.254C1416.24 395.915 1419.98 409.832 1422.78 424.381C1425.57 438.931 1427.44 454.113 1424.95 463.915C1422.46 473.718 1415.62 478.146 1409.09 478.464C1402.56 478.782 1396.34 474.986 1391.99 463.6C1387.63 452.214 1385.14 433.237 1381.41 414.26C1377.68 395.282 1372.7 376.305 1365.86 355.746C1359.02 335.187 1350.31 313.047 1339.11 293.437C1327.92 273.826 1314.23 256.747 1297.44 241.564C1280.64 226.381 1260.74 213.097 1237.41 204.556C1214.08 196.015 1187.33 192.22 1156.23 188.424C1125.13 184.628 1089.67 180.833 1054.21 177.037" stroke="#E5E1D5" stroke-width="3.46707"/>
<path d="M484.414 940.567C468.242 927.914 447.715 921.588 432.162 910.835C416.61 900.083 406.036 884.901 384.575 877.624C363.114 870.347 330.768 870.98 299.977 865.287C269.185 859.595 239.95 847.576 214.134 839.352C188.318 831.128 165.925 826.7 151.926 834.925C137.927 843.15 132.329 864.024 129.53 882.054C126.731 900.083 126.731 915.265 130.775 932.977C134.82 950.69 142.906 970.933 157.215 988.012C171.524 1005.09 192.051 1019.01 217.556 1033.24C243.06 1047.47 273.54 1062.02 305.264 1067.71C336.988 1073.41 369.956 1070.24 406.656 1056.01C443.357 1041.78 483.788 1016.47 498.097 994.335C512.406 972.197 500.587 953.22 484.414 940.567Z" stroke="#E5E1D5" stroke-width="3.46707"/>
<path d="M425.056 679.346C451.993 673.895 460.338 666.8 468.471 664.227C476.603 661.654 484.526 663.606 495.313 665.583C506.101 667.56 519.742 669.561 531.335 672.914C542.928 676.267 552.464 680.972 564.767 680.109C577.071 679.247 592.132 672.815 610.643 660.846C629.154 648.877 651.089 631.388 648.071 614.579C645.053 597.77 617.092 581.671 595.968 569.745C574.844 557.82 560.58 550.08 541.623 543.722C522.666 537.363 499.026 532.388 475.323 532.88C451.621 533.373 427.881 539.33 397.553 552.109C367.225 564.888 330.34 584.474 314.16 608.998C297.981 633.522 302.528 662.965 327.561 675.785C352.594 688.605 398.118 684.797 425.056 679.346Z" stroke="#E5E1D5" stroke-width="2.64664"/>
<path d="M473.835 894.385C488.148 897.549 502.455 900.712 514.274 906.407C526.092 912.102 535.423 920.325 541.076 929.805C546.73 939.285 548.483 948.792 553.15 957.332C557.817 965.871 565.281 972.829 579.278 977.888C593.274 982.948 613.802 986.11 627.795 983.896C641.789 981.682 649.254 974.091 652.054 966.186C654.854 958.281 652.987 950.057 647.389 947.524C641.791 944.991 632.461 948.154 620.954 948.787C609.447 949.421 595.762 947.523 584.875 940.883C573.989 934.242 565.902 922.856 556.883 912.734C547.864 902.613 537.911 893.756 525.47 888.378C513.029 882.999 498.1 881.102 484.104 878.888C470.108 876.674 457.045 874.144 447.092 871.298C437.139 868.452 430.297 865.289 419.722 860.228C409.147 855.167 394.84 848.209 379.91 844.413C364.98 840.616 349.429 839.983 340.098 836.506C330.766 833.029 327.656 826.704 331.077 821.64C334.498 816.577 344.451 812.782 359.07 812.466C373.69 812.151 392.973 815.313 408.525 821.641C424.076 827.968 435.895 837.456 449.891 843.148C463.888 848.84 480.061 850.738 493.123 851.686C506.186 852.635 516.139 852.635 524.848 852.635C533.557 852.635 539.777 852.635 547.242 857.065C554.706 861.495 562.793 870.351 571.813 877.309C580.834 884.266 590.786 889.327 602.604 890.274C614.422 891.222 628.107 888.059 630.906 879.838C633.705 871.617 625.619 858.333 616.6 851.688C607.58 845.044 597.628 845.044 585.187 840.301C572.746 835.558 557.817 826.07 545.998 820.691C534.179 815.313 525.47 814.048 517.695 811.519C509.919 808.989 503.077 805.194 504.008 800.132C504.939 795.069 513.647 788.744 525.468 786.214C537.289 783.684 552.218 784.949 560.303 783.685C568.387 782.421 569.631 778.626 570.876 774.827" stroke="#E5E1D5" stroke-width="3.46707"/>
<path d="M579.072 650.052C576.091 649.889 570.131 649.564 566.234 642.779C562.336 635.995 560.499 622.756 557.897 615.592C555.295 608.428 551.932 607.339 549.614 607.892C547.296 608.445 546.021 610.64 546.938 617.259C547.856 623.878 550.969 634.922 551.227 640.828C551.485 646.734 548.889 647.499 542.664 647.106C536.439 646.712 528.638 645.486 523.402 643.386C518.166 641.287 516.518 638.478 515.516 632.533C514.514 626.588 514.154 617.507 510.937 613.256C507.72 609.004 501.648 609.578 500.033 614.472C498.419 619.366 501.261 628.583 500.362 633.745C499.463 638.907 494.823 640.01 489.523 640.399C484.222 640.787 478.263 640.462 473.969 636.827C469.676 633.193 467.048 626.253 464.243 622.704C461.437 619.154 458.458 618.991 456.857 619.809C455.255 620.626 455.029 622.426 455.571 626.079C456.113 629.733 457.424 635.241 455.399 639.436C453.373 643.631 448.012 646.51 444.179 645.166C440.347 643.822 438.046 638.26 436.851 631.852C435.657 625.443 435.568 618.189 432.43 615.302C429.292 612.416 423.106 613.893 420.888 617.622C418.67 621.351 420.419 627.337 421.891 633.534C423.363 639.731 424.558 646.14 421.87 649.619C419.182 653.099 412.613 653.647 408.269 648.424C403.926 643.202 401.806 632.212 399.368 625.736C396.93 619.26 394.176 617.298 391.667 617.388C389.157 617.479 386.888 619.621 387.309 626.212C387.73 632.803 390.843 643.847 390.797 650.189C390.75 656.532 387.545 658.169 383.775 654.337C380.006 650.504 375.673 641.206 372.072 636.027C368.472 630.847 365.605 629.785 364.573 634.032C363.541 638.279 364.341 647.837 360.518 652.388C356.695 656.938 348.252 656.477 341.356 655.647C334.459 654.817 329.109 653.619 324.951 650.899C320.792 648.178 317.825 643.939 316.653 639.344C315.482 634.75 315.99 630.7 317.989 626.732C319.988 622.765 323.42 619.328 326.066 620.15C328.712 620.973 330.573 626.058 332.78 629.512C334.987 632.966 337.94 635.07 340.176 635.193C342.413 635.316 344.129 633.598 343.857 631.769C343.584 629.941 341.327 628.005 340.206 624.999C339.084 621.992 339.094 617.915 340.758 614.609C342.423 611.304 345.742 608.766 349.053 608.267C352.364 607.767 355.671 609.307 358.889 612.311C362.108 615.314 364.915 619.325 367.392 621.501C369.869 623.676 371.855 623.785 372.991 622.713C374.127 621.641 374.41 619.391 373.591 615.948C372.773 612.505 370.855 607.87 369.321 604.161C367.786 600.453 366.636 597.671 367.529 594.55C368.423 591.428 371.358 587.964 374.003 588.787C376.649 589.609 379.007 594.722 382.634 599.678C386.262 604.633 391.159 609.432 395.07 612.138C398.98 614.845 401.903 615.457 403.125 613.71C404.346 611.963 403.863 607.859 402.243 604.826C400.623 601.793 397.869 599.83 396.606 597.963C395.343 596.096 395.573 594.267 395.72 591.103C395.868 587.939 395.936 583.412 398.374 579.922C400.813 576.433 405.621 573.977 409.588 576.23C413.555 578.484 416.68 585.451 418.046 590.51C419.411 595.568 419.016 598.718 420.938 601.316C422.86 603.913 427.104 605.957 430.695 605.248C434.287 604.538 437.222 601.073 437.836 598.161C438.451 595.248 436.747 592.889 435.27 588.731C433.793 584.572 432.541 578.614 432.611 574.088C432.68 569.561 434.069 566.465 436.309 564.549C438.548 562.633 441.641 561.894 444.642 563.868C447.644 565.841 450.555 570.531 451.56 576.476C452.564 582.422 451.66 589.622 450.985 594.995C450.31 600.369 450.077 602.222 452.829 604.185C455.581 606.149 461.428 607.374 464.635 605.736C467.843 604.097 468.408 599.597 468.754 594.859C469.099 590.12 469.224 585.143 468.496 578.986C467.769 572.83 466.19 565.494 466.976 561.235C467.761 556.975 470.91 555.788 475.074 556.467C479.238 557.147 484.418 559.695 486.501 565.019C488.584 570.342 487.567 578.442 486.747 584.967C485.928 591.492 485.306 596.442 487.2 599.265C489.093 602.088 493.507 602.782 497.545 600.51C501.582 598.238 505.24 593.001 506.748 586.965C508.255 580.93 507.614 574.099 507.959 569.361C508.305 564.623 509.638 561.978 511.515 560.948C513.393 559.918 515.819 560.504 517.377 566.025C518.935 571.546 519.622 582.004 520.504 589.508C521.387 597.011 522.267 600.725 525.162 601.565C528.057 602.405 532.865 599.949 535.723 595.119C538.58 590.289 539.484 583.09 539.446 577.424C539.408 571.757 538.427 567.626 541.136 565.962C543.845 564.299 550.245 565.102 554.483 569.183C558.722 573.264 560.798 580.627 561.525 586.783C562.253 592.94 561.631 597.89 563.745 600.952C565.859 604.013 570.712 605.184 573.282 604.644C575.851 604.103 576.134 601.853 576.288 596.651C576.441 591.449 576.466 583.295 578.436 579.552C580.405 575.81 584.321 576.476 588.176 578.593C592.03 580.71 595.393 583.875 595.93 589.568C596.466 595.261 593.959 603.28 594.08 608.27C594.201 613.261 596.955 615.224 599.773 614.699C602.591 614.173 605.47 611.159 607.937 607.442C610.405 603.725 612.46 599.306 617.097 598.201C621.734 597.095 628.958 599.302 632.559 604.481C636.16 609.661 636.135 617.815 633.966 623.135C631.797 628.455 627.484 630.938 623.51 630.72C619.535 630.501 615.902 627.585 612.347 626.033C608.792 624.481 605.315 624.291 603.296 626.445C601.277 628.599 600.711 633.099 600.203 637.149C599.694 641.199 599.242 644.799 596.226 646.9C593.21 649.002 587.634 649.602 584.847 649.902C582.061 650.202 582.053 650.216 579.072 650.052Z" stroke="#E5E1D5" stroke-width="2.6218"/>
<path d="M459.518 974.854C458.199 971.055 455.56 963.451 452.812 958.083C450.064 952.715 447.205 949.584 444.674 949.246C442.142 948.909 439.943 951.369 437.744 955.955C435.544 960.541 433.345 967.251 430.817 971.275C428.289 975.299 425.43 976.641 422.682 976.531C419.935 976.42 417.296 974.855 417.073 971.388C416.85 967.921 419.05 962.553 421.609 957.024C424.169 951.494 426.527 946.898 426.53 943.543C426.533 940.189 423.894 938.623 419.932 943.767C415.971 948.911 410.692 960.765 406.076 967.249C401.459 973.733 397.5 974.852 394.752 975.411C392.003 975.971 390.464 975.971 389.254 975.19C388.043 974.41 387.164 972.844 390.791 965.462C394.418 958.079 402.555 944.884 405.636 936.722C408.717 928.561 406.737 925.43 404.869 923.192C403 920.955 401.241 919.613 397.939 922.855C394.638 926.097 389.799 933.925 385.181 940.522C380.562 947.12 376.164 952.487 372.427 955.171C368.691 957.854 365.612 957.854 363.851 956.291C362.09 954.727 361.65 951.596 362.749 948.016C363.848 944.436 366.487 940.411 369.896 934.484C373.305 928.557 377.484 920.73 378.036 915.251C378.588 909.773 375.509 906.642 371.548 907.535C367.587 908.428 362.749 913.348 357.581 921.177C352.412 929.005 346.914 939.74 342.78 946.163C338.646 952.587 336.138 954.499 333.172 954.612C330.205 954.725 326.906 952.937 325.254 950.924C323.602 948.912 323.602 946.676 325.471 941.083C327.34 935.491 331.079 926.545 332.729 919.389C334.379 912.233 333.94 906.866 331.853 902.84C329.765 898.814 326.027 896.13 321.848 894.898C317.668 893.666 313.05 893.89 309.419 900.378C305.788 906.866 303.149 919.614 300.07 927.216C296.992 934.819 293.473 937.279 290.176 938.062C286.88 938.846 283.801 937.951 282.588 935.604C281.376 933.257 282.036 929.455 282.916 923.639C283.795 917.825 284.895 909.997 285.555 904.182C286.215 898.367 286.435 894.565 285.228 891.658C284.021 888.75 281.382 886.737 278.961 886.176C276.54 885.615 274.341 886.51 271.921 890.649C269.5 894.788 266.861 902.168 264.332 908.654C261.803 915.14 259.383 920.731 256.527 923.525C253.67 926.32 250.371 926.32 247.731 924.421C245.091 922.523 243.112 918.721 243.77 913.687C244.428 908.653 247.727 902.391 249.817 896.577C251.906 890.763 252.786 885.395 251.799 881.593C250.812 877.791 247.953 875.555 245.423 874.435C242.894 873.315 240.694 873.315 237.723 878.013C234.751 882.71 231.013 892.104 228.044 898.813C225.074 905.522 222.875 909.548 220.238 911.895C217.601 914.242 214.522 914.913 211.883 914.021C209.244 913.129 207.045 910.669 206.681 907.563C206.316 904.457 207.48 901.497 209.9 895.794C212.319 890.091 215.838 882.039 216.5 876.784C217.162 871.529 214.963 869.069 212.543 867.837C210.124 866.605 207.485 866.605 204.624 872.645C201.762 878.685 198.683 890.762 195.827 896.8C192.97 902.837 190.331 902.837 188.115 901.278C185.899 899.719 184.611 897.474 184.5 894.565C184.388 891.656 185.707 888.525 186.807 883.829C187.907 879.133 188.787 872.871 187.8 868.51C186.812 864.149 183.953 861.689 180.434 860.345C176.915 859.001 172.737 858.777 169.106 860.007C165.475 861.236 162.396 863.92 159.426 867.947C156.457 871.974 153.598 877.341 152.169 883.828C150.74 890.315 150.74 897.919 150.96 906.083C151.18 914.246 151.619 922.968 152.94 929.455C154.261 935.941 156.46 940.19 159.208 940.747C161.955 941.304 165.254 938.173 166.904 934.708C168.553 931.243 168.553 927.889 168.553 924.422C168.553 920.955 168.553 917.601 169.544 915.697C170.535 913.794 172.515 913.347 174.715 913.124C176.915 912.901 179.334 912.901 181.092 914.357C182.85 915.813 183.95 918.72 183.839 922.409C183.727 926.099 182.408 930.572 181.308 935.157C180.209 939.742 179.329 944.439 179 948.689C178.671 952.938 178.891 956.74 180.432 958.751C181.974 960.762 184.833 960.986 186.81 959.533C188.786 958.081 189.886 954.95 190.876 950.365C191.866 945.781 192.745 939.743 194.396 936.05C196.046 932.358 198.465 931.016 200.446 930.346C202.427 929.675 203.966 929.675 205.175 930.684C206.384 931.692 207.263 933.705 206.822 937.059C206.381 940.413 204.621 945.109 202.752 951.26C200.882 957.411 198.903 965.015 198.134 971.725C197.365 978.435 197.804 984.25 199.873 986.654C201.942 989.058 204.844 988.271 207.481 984.247C210.119 980.223 212.098 973.066 213.858 967.027C215.617 960.989 217.157 956.068 218.476 952.154C219.796 948.24 220.895 945.333 222.657 943.878C224.419 942.423 226.838 942.423 229.147 943.767C231.456 945.111 233.655 947.794 233.653 952.267C233.651 956.739 231.452 963.001 229.692 968.816C227.933 974.632 226.614 979.999 225.734 984.025C224.855 988.051 224.415 990.735 224.636 993.643C224.857 996.551 225.736 999.682 227.057 1001.25C228.378 1002.81 230.138 1002.81 231.455 1002.25C232.772 1001.69 233.652 1000.57 234.202 998.561C234.752 996.55 234.972 993.642 236.072 988.945C237.171 984.248 239.15 977.762 241.13 972.73C243.109 967.697 245.088 964.119 247.181 962.553C249.273 960.987 251.472 961.434 253.451 962.889C255.429 964.344 257.189 966.804 257.077 969.486C256.965 972.169 254.985 975.076 253.006 980.109C251.027 985.142 249.047 992.299 248.608 997.779C248.17 1003.26 249.269 1007.06 250.92 1008.96C252.571 1010.86 254.77 1010.86 256.527 1009.52C258.284 1008.18 259.604 1005.49 261.033 1001.69C262.463 997.89 264.002 992.97 265.982 989.502C267.962 986.034 270.381 984.021 271.591 983.014C272.8 982.008 282.037 991.401 281.047 993.975C280.057 996.548 278.078 1001.69 276.648 1007.17C275.219 1012.65 274.339 1018.47 274.671 1022.94C275.002 1027.41 276.541 1030.55 278.96 1031.33C281.379 1032.11 284.678 1030.54 286.876 1026.63C289.074 1022.72 290.174 1016.45 291.714 1007.51C293.253 998.561 295.232 986.932 297.542 979.55C299.851 972.168 302.49 969.037 305.132 968.031C307.774 967.025 310.413 968.143 312.061 969.71C313.709 971.277 314.368 973.29 312.938 979.663C311.507 986.037 307.988 996.772 306.999 1005.72C306.011 1014.67 307.55 1021.82 309.421 1026.52C311.292 1031.22 313.491 1033.45 316.238 1033.34C318.986 1033.22 322.284 1030.76 323.384 1026.74C324.484 1022.72 323.385 1017.13 323.274 1012.32C323.163 1007.51 324.043 1003.48 325.362 1000.24C326.682 996.994 328.441 994.534 330.424 993.863C332.406 993.194 334.605 994.311 336.033 996.661C337.46 999.01 338.12 1002.59 338.119 1005.94C338.118 1009.3 337.459 1012.43 337.789 1017.35C338.12 1022.27 339.44 1028.98 341.2 1032.33C342.961 1035.68 345.161 1035.68 346.511 1034.91C347.862 1034.14 348.235 1033 349.004 1029.43C349.774 1025.85 350.874 1020.03 352.193 1015.45C353.512 1010.86 355.052 1007.51 356.703 1005.72C358.355 1003.93 360.115 1003.7 361.655 1004.04C363.195 1004.38 364.514 1005.27 365.503 1006.61C366.491 1007.96 367.151 1009.74 367.369 1011.87C367.588 1013.99 367.368 1016.45 366.897 1018.91C366.426 1021.36 365.828 1023.39 366.379 1026.52C366.931 1029.65 368.69 1033.68 371.439 1034.9C374.188 1036.13 377.927 1034.56 380.015 1032.44C382.103 1030.32 382.542 1027.64 383.092 1023.39C383.642 1019.14 384.302 1013.32 385.072 1008.18C385.841 1003.03 386.721 998.561 388.262 995.875C389.802 993.189 392.001 992.295 394.312 992.184C396.623 992.073 399.042 992.744 400.249 994.423C401.457 996.101 401.457 998.785 401.457 1002.14C401.457 1005.49 401.457 1009.52 401.457 1012.88C401.457 1016.23 401.457 1018.91 401.457 1020.25C401.457 1021.59 405.415 1025.62 406.627 1025.51C407.838 1025.4 410.257 1025.17 412.014 1022.82C413.772 1020.48 414.872 1016 415.532 1011.98C416.192 1007.95 416.412 1004.38 417.181 1001.24C417.951 998.111 419.27 995.428 421.252 994.085C423.234 992.742 425.873 992.742 427.191 994.533C428.508 996.324 428.508 999.903 429.501 1002.25C430.493 1004.6 432.472 1005.72 434.449 1005.6C436.426 1005.49 438.406 1004.15 441.157 1003.6C443.908 1003.06 447.426 1003.31 450.957 1001.33C454.487 999.341 458.033 995.12 459.683 990.97C461.333 986.82 461.085 982.741 460.961 980.697C460.837 978.653 460.837 978.654 459.518 974.854Z" stroke="#E5E1D5" stroke-width="3.46707"/>
<path d="M200.745 748.828C190.405 751.573 176.764 754.671 168.062 758.514C159.359 762.356 155.61 766.935 152.298 774.539C148.987 782.143 146.119 792.762 148.917 800.464C151.716 808.166 159.309 812.463 168.362 813.493C177.415 814.522 184.561 811.901 199.55 816.235C214.539 820.57 236.551 832.156 253.869 833.533C271.186 834.911 283.809 826.082 285.831 810.762C287.853 795.442 279.273 773.638 267.391 760.976C255.51 748.315 240.331 744.807 229.224 744.249C218.118 743.69 211.085 746.082 200.745 748.828Z" stroke="#E5E1D5" stroke-width="3.46707"/>
<path d="M311.936 685.72C301.759 682.403 288.61 677.585 279.238 676.086C269.866 674.587 264.287 676.409 257.484 681.025C250.681 685.64 242.663 693.042 240.967 701.07C239.271 709.097 243.416 716.864 250.517 722.666C257.618 728.469 265.033 730.151 275.404 741.979C285.774 753.807 298.252 775.586 312.147 786.187C326.042 796.787 341.352 796.213 351.132 784.381C360.913 772.548 365.159 749.464 361.801 732.298C358.442 715.133 347.475 703.9 338.393 697.375C329.311 690.851 322.112 689.037 311.936 685.72Z" stroke="#E5E1D5" stroke-width="3.46707"/>
<path d="M462.72 732.391C458.032 728.813 448.657 721.657 442.073 716.73C435.489 711.802 431.711 709.114 425.194 711.796C418.677 714.478 409.443 722.535 405.662 730.946C401.882 739.356 403.377 747.224 407.691 754.703C412.005 762.183 417.533 766.492 420.19 775.551C422.847 784.609 422.002 797.899 430.954 806.831C439.905 815.764 458.636 820.327 472.077 815.601C485.518 810.874 493.645 796.869 494.647 783.636C495.649 770.402 489.517 757.953 483.789 750.14C478.061 742.326 472.736 739.149 470.072 737.559C467.409 735.97 467.409 735.97 462.72 732.391Z" stroke="#E5E1D5" stroke-width="3.03786"/>
<path d="M859.589 717.014C849.413 713.697 836.263 708.878 826.891 707.379C817.519 705.88 811.94 707.702 805.137 712.318C798.334 716.933 790.316 724.335 788.62 732.363C786.924 740.391 791.07 748.157 798.171 753.959C805.272 759.762 812.686 761.444 823.057 773.272C833.428 785.1 845.905 806.879 859.801 817.48C873.696 828.08 889.005 827.506 898.786 815.674C908.566 803.841 912.812 780.757 909.454 763.592C906.096 746.427 895.129 735.193 886.046 728.669C876.964 722.144 869.766 720.331 859.589 717.014Z" stroke="#E5E1D5" stroke-width="3.46707"/>
<path d="M593.782 708.245C586.961 709.799 573.322 712.906 564.623 716.754C555.923 720.602 552.176 725.184 550.19 731.449C548.204 737.713 547.982 745.65 551.116 751.449C554.249 757.249 560.068 760.537 567.67 763.04C575.271 765.542 581.821 766.329 596.481 772.553C611.142 778.778 633.162 790.349 650.48 791.714C667.799 793.079 680.416 784.242 682.427 768.921C684.439 753.599 675.844 731.801 663.954 719.148C652.064 706.494 636.883 702.998 625.776 702.447C614.669 701.896 607.637 704.293 604.12 705.492C600.603 706.691 600.603 706.691 593.782 708.245Z" stroke="#E5E1D5" stroke-width="3.46707"/>
<path d="M786.994 763.058C793.154 770.437 800.191 773.568 807.335 780.666C814.479 787.763 821.303 798.172 829.441 807.789C837.579 817.405 846.815 825.904 857.373 831.942C867.929 837.979 879.805 841.557 889.7 840.438C899.595 839.319 907.512 833.504 913.669 824.559C919.827 815.615 924.225 803.538 925.985 789.672C927.745 775.806 926.866 760.151 923.128 748.745C919.391 737.338 912.793 730.181 901.798 722.576C890.802 714.971 875.407 706.92 858.252 701.104C841.097 695.288 822.184 691.71 809.426 692.381C796.668 693.051 790.07 697.971 784.571 705.353C779.072 712.735 774.674 722.575 775.115 733.312C775.557 744.049 780.835 755.678 786.994 763.058Z" stroke="#E5E1D5" stroke-width="3.46707"/>
<path d="M564.648 777.369C574.544 780.723 582.021 780.723 591.699 784.974C601.376 789.225 613.252 797.724 628.207 801.076C643.161 804.429 661.195 802.64 673.289 798.615C685.384 794.589 691.542 788.327 694.621 782.067C697.7 775.806 697.7 769.544 697.04 760.822C696.381 752.099 695.061 740.917 688.685 729.734C682.309 718.551 670.873 707.369 660.976 699.54C651.08 691.712 642.723 687.239 628.206 688.579C613.689 689.92 593.016 697.076 576.741 702.668C560.466 708.259 548.59 712.285 541.551 718.325C534.512 724.366 532.313 732.417 531.214 739.798C530.115 747.179 530.115 753.889 536.275 760.598C542.436 767.306 554.751 774.016 564.648 777.369Z" stroke="#E5E1D5" stroke-width="3.46707"/>
<path d="M341.416 778.039C343.615 765.518 345.814 752.993 344.496 742.259C343.178 731.524 338.339 722.578 330.643 715.196C322.947 707.815 312.39 702 302.273 698.421C292.156 694.841 282.48 693.499 275.659 695.512C268.839 697.525 264.88 702.893 264.002 707.591C263.124 712.29 265.323 716.316 270.603 719.445C275.882 722.575 284.239 724.811 290.616 729.509C296.993 734.208 301.392 741.365 305.571 747.179C309.75 752.994 313.709 757.467 316.346 762.388C318.984 767.308 320.304 772.676 323.164 775.357C326.025 778.039 330.423 778.039 334.818 778.039" stroke="#E5E1D5" stroke-width="3.46707"/>
<path d="M938.033 853.048C935.392 855.51 935.392 859.088 938.033 860.876C940.674 862.663 945.953 862.663 948.59 860.205C951.227 857.747 951.227 852.827 948.589 851.035C945.951 849.243 940.673 850.585 938.033 853.048Z" stroke="#E5E1D5" stroke-width="2.31138"/>
<path d="M726.088 813.462C723.447 815.924 723.447 819.503 726.088 821.29C728.73 823.077 734.008 823.077 736.645 820.619C739.282 818.161 739.282 813.24 736.644 811.449C734.006 809.657 728.728 810.999 726.088 813.462Z" stroke="#E5E1D5" stroke-width="2.31138"/>
<path d="M991.081 826.746C988.441 829.209 988.441 832.787 991.082 834.574C993.723 836.362 999.001 836.362 1001.64 833.904C1004.28 831.445 1004.28 826.525 1001.64 824.734C999 822.942 993.722 824.283 991.081 826.746Z" stroke="#E5E1D5" stroke-width="2.31138"/>
<path d="M1028.4 879.883C1025.76 882.345 1025.76 885.924 1028.41 887.711C1031.05 889.498 1036.32 889.498 1038.96 887.04C1041.6 884.582 1041.6 879.662 1038.96 877.87C1036.32 876.079 1031.04 877.421 1028.4 879.883Z" stroke="#E5E1D5" stroke-width="2.31138"/>
<path d="M301.537 836.235C298.897 838.697 298.897 842.276 301.538 844.063C304.179 845.85 309.458 845.85 312.095 843.392C314.732 840.934 314.732 836.014 312.094 834.222C309.456 832.43 304.178 833.773 301.537 836.235Z" stroke="#E5E1D5" stroke-width="2.31138"/>
<path d="M211.962 713.83C209.322 716.293 209.322 719.871 211.963 721.658C214.604 723.446 219.882 723.445 222.519 720.988C225.156 718.529 225.156 713.609 222.519 711.818C219.881 710.026 214.603 711.368 211.962 713.83Z" stroke="#E5E1D5" stroke-width="2.31138"/>
<path d="M266.08 644.562C263.44 647.025 263.44 650.603 266.081 652.39C268.723 654.178 274.001 654.178 276.638 651.72C279.275 649.261 279.275 644.341 276.637 642.55C273.999 640.758 268.721 642.1 266.08 644.562Z" stroke="#E5E1D5" stroke-width="2.31138"/>
<path d="M386.448 710.034C383.807 712.497 383.807 716.076 386.448 717.863C389.09 719.65 394.368 719.65 397.005 717.192C399.642 714.734 399.642 709.813 397.004 708.022C394.366 706.23 389.088 707.572 386.448 710.034Z" stroke="#E5E1D5" stroke-width="2.31138"/>
<path d="M388.314 783.098C385.673 785.56 385.673 789.139 388.314 790.926C390.956 792.713 396.234 792.713 398.871 790.255C401.508 787.797 401.508 782.877 398.87 781.085C396.232 779.294 390.954 780.636 388.314 783.098Z" stroke="#E5E1D5" stroke-width="2.31138"/>
<path d="M190.501 673.029C187.861 675.491 187.861 679.07 190.502 680.857C193.143 682.644 198.422 682.644 201.059 680.186C203.696 677.728 203.696 672.808 201.058 671.016C198.42 669.224 193.142 670.566 190.501 673.029Z" stroke="#E5E1D5" stroke-width="2.31138"/>
<path d="M121.454 822.951C118.813 825.413 118.813 828.992 121.454 830.779C124.096 832.566 129.374 832.566 132.011 830.108C134.648 827.65 134.648 822.73 132.01 820.938C129.372 819.147 124.094 820.488 121.454 822.951Z" stroke="#E5E1D5" stroke-width="2.31138"/>
<path d="M504.948 764.12C502.308 766.583 502.308 770.161 504.949 771.948C507.59 773.736 512.868 773.736 515.505 771.278C518.143 768.819 518.143 763.899 515.505 762.108C512.867 760.316 507.589 761.658 504.948 764.12Z" stroke="#E5E1D5" stroke-width="2.31138"/>
<path d="M476.023 683.466C473.382 685.928 473.382 689.507 476.023 691.294C478.665 693.081 483.943 693.081 486.58 690.623C489.217 688.165 489.217 683.245 486.579 681.453C483.941 679.662 478.663 681.004 476.023 683.466Z" stroke="#E5E1D5" stroke-width="2.31138"/>
<path d="M1067.89 897.865C1063.54 896.915 1046.75 907.037 1036.17 908.621C1025.6 910.205 1021.24 903.246 1017.51 896.921C1013.78 890.595 1010.67 884.901 1003.52 882.052C996.362 879.203 985.166 879.203 973.656 881.733C962.147 884.263 950.328 889.324 941.618 899.763C932.908 910.203 927.31 926.017 926.068 936.139C924.826 946.262 927.936 950.69 931.98 954.801C936.024 958.912 941.001 962.708 946.599 964.604C952.197 966.5 958.417 966.5 963.394 968.716C968.37 970.932 972.102 975.36 974.9 982.319C977.698 989.277 979.564 998.766 982.326 1000.16C985.089 1001.55 987.649 996.865 987.339 989.276C987.03 981.686 983.297 972.198 978.011 965.554C972.725 958.911 965.883 955.116 960.595 953.217C955.307 951.318 951.575 951.318 948.775 949.422C945.975 947.527 944.109 943.732 943.174 939.619C942.24 935.507 942.24 931.079 943.795 925.701C945.349 920.323 948.46 913.997 952.815 908.935C957.17 903.874 962.769 900.078 968.99 897.548C975.212 895.017 982.055 893.752 987.964 895.969C993.874 898.185 998.851 903.878 1002.58 909.255C1006.31 914.633 1008.8 919.693 1012.85 922.221C1016.89 924.749 1022.49 924.749 1029.95 924.433C1037.42 924.116 1046.75 923.484 1055.46 917.159C1064.16 910.834 1072.25 898.815 1067.89 897.865Z" stroke="#E5E1D5" stroke-width="3.46707"/>
<path d="M666.049 520.529C666.049 528.124 666.049 535.715 662.317 543.621C658.584 551.527 651.12 559.75 648.321 568.925C645.522 578.099 647.389 588.22 652.367 597.709C657.345 607.197 665.431 616.054 668.192 623.518C670.953 630.982 669.781 633.764 666.049 638.823C662.317 643.883 656.718 649.576 658.275 658.435C659.832 667.293 668.541 679.312 676.628 686.902C684.716 694.492 692.18 697.654 699.021 707.777C705.863 717.9 712.083 734.979 714.259 749.845C716.435 764.71 714.569 777.361 707.415 789.695C700.262 802.029 687.821 814.048 674.138 820.057C660.455 826.066 645.526 826.066 631.841 824.169C618.156 822.272 605.715 818.477 605.093 821.325C604.471 824.173 615.668 833.661 631.841 839.986C648.015 846.31 669.164 849.473 690.003 856.116C710.842 862.759 731.37 872.88 735.722 880.153C740.075 887.426 728.256 891.854 712.395 889.325C696.534 886.796 676.629 877.308 665.327 876.328C654.026 875.348 651.741 881.736 658.276 888.378C664.811 895.02 680.362 901.346 686.579 907.355C692.797 913.365 689.686 919.058 681.913 921.587C674.14 924.117 661.699 923.484 648.325 923.168C634.951 922.851 620.644 922.852 609.168 921.5C597.692 920.148 590.164 917.792 582.072 915.261" stroke="#E5E1D5" stroke-width="3.46707"/>
<path d="M917.98 1042.41C914.249 1026.6 910.517 1010.78 904.92 999.082C899.323 987.379 891.858 979.788 882.527 974.726C873.197 969.664 862 967.133 853.602 963.655C845.205 960.177 839.606 955.749 836.494 948.791C833.381 941.833 832.759 932.344 829.65 919.693C826.54 907.041 820.942 891.227 812.546 881.737C804.149 872.246 792.953 869.083 785.487 864.341C778.021 859.598 774.289 853.272 772.111 841.885C769.932 830.498 769.31 814.052 764.647 801.084C759.983 788.115 751.274 778.627 746.296 769.454C741.318 760.282 740.074 751.426 738.208 741.305C736.342 731.183 733.854 719.797 728.879 710.308C723.904 700.819 716.44 693.228 710.529 685.954C704.619 678.679 700.265 671.721 699.019 661.915C697.774 652.11 699.64 639.458 697.154 629.653C694.668 619.849 687.825 612.89 685.646 604.666C683.466 596.442 685.954 586.953 688.443 577.462" stroke="#E5E1D5" stroke-width="3.46707"/>
<path d="M707.105 581.257C712.083 597.076 717.059 612.891 722.035 630.287C727.012 647.683 731.988 666.66 738.21 678.362C744.433 690.064 751.897 694.492 760.292 690.379C768.687 686.266 778.018 673.615 796.06 670.769C814.103 667.922 840.851 674.881 865.733 685.319C890.615 695.758 913.631 709.674 927.625 726.439C941.619 743.203 946.596 762.813 949.083 778.311C951.571 793.809 951.571 805.195 953.749 815.317C955.928 825.439 960.282 834.295 966.504 840.936C972.726 847.577 980.812 852.005 991.697 852.32C1002.58 852.634 1016.27 848.839 1029.31 846.626C1042.36 844.413 1054.84 843.779 1067.9 847.576C1080.96 851.373 1094.65 859.596 1108.33 867.817" stroke="#E5E1D5" stroke-width="3.46707"/>
<path d="M445.662 497.58C462.381 500.265 479.096 502.948 498.45 507.869C517.804 512.79 539.796 519.947 556.511 524.419C573.225 528.892 584.661 530.681 593.896 527.997C603.131 525.313 610.168 518.156 609.512 508.445C608.856 498.734 601.374 487.744 597.414 477.903C593.454 468.062 593.454 460.01 596.533 451.063C599.611 442.116 605.769 432.275 611.929 426.459C618.088 420.643 624.246 418.854 630.842 412.145C637.439 405.437 644.476 393.807 647.996 384.862C651.515 375.917 651.515 369.655 651.515 363.389" stroke="#E5E1D5" stroke-width="3.46707"/>
<path d="M920.707 1172.56C899.594 1194.48 875.842 1215.05 842.853 1231.6C809.865 1248.15 767.639 1260.68 718.376 1267.39C669.112 1274.1 612.811 1274.99 570.145 1270.52C527.48 1266.05 498.45 1256.21 469.859 1243.24C441.268 1230.26 413.117 1214.16 381.447 1201.64C349.777 1189.11 314.589 1180.17 283.799 1170.33C253.009 1160.48 226.618 1149.75 200.666 1133.2C174.714 1116.65 149.203 1094.29 128.529 1071.03C107.855 1047.77 92.0201 1023.61 79.2636 998.564C66.5071 973.515 56.8305 947.572 54.1903 916.707C51.55 885.842 55.9485 850.058 71.3435 806.668C86.7384 763.279 113.129 712.287 142.6 666.661C172.071 621.035 204.62 580.779 248.567 552.48C292.514 524.181 346.257 508.314 390.682 490.422C435.107 472.53 469.415 452.849 504.164 431.378C538.913 409.907 574.101 386.648 604.89 358.468C635.68 330.289 662.071 297.189 691.102 258.72C720.132 220.252 751.801 176.417 779.514 148.236C807.226 120.055 830.977 107.531 856.05 94.1116C881.122 80.6924 907.512 66.3791 937.864 58.3278C968.216 50.2765 1002.52 48.4873 1041.23 48.4875C1079.94 48.4877 1123.05 50.2769 1169.23 62.3553C1215.42 74.4338 1264.68 96.7985 1311.31 125.427C1357.93 154.055 1401.91 188.944 1430.5 224.282C1459.09 259.62 1472.29 295.404 1484.61 336.109C1496.92 376.814 1508.36 422.437 1507.92 463.589C1507.47 504.74 1495.16 541.418 1477.12 572.281C1459.09 603.144 1435.34 628.193 1405.43 651.899C1375.52 675.606 1339.45 697.971 1306.9 723.915C1274.35 749.86 1245.32 779.381 1208.81 818.297C1172.3 857.213 1128.32 905.521 1088.73 954.725C1049.14 1003.93 1013.96 1054.03 987.125 1090.7C960.293 1127.38 941.82 1150.64 920.707 1172.56Z" stroke="#E5E1D5" stroke-width="3.46707"/>
</svg>
