<svg width="46" height="32" viewBox="0 0 46 32" fill="none" xmlns="http://www.w3.org/2000/svg">
<path d="M38.6124 32H7.38811C3.31404 32 0 28.9251 0 25.1449V6.85508C0 3.07542 3.31456 0 7.38811 0H38.6124C42.686 0 46 3.07542 46 6.85508V25.1449C46 28.9251 42.686 32 38.6124 32ZM7.38811 2.00459C4.50544 2.00459 2.16047 4.18039 2.16047 6.85508V25.1449C2.16047 27.8196 4.50544 29.9959 7.38811 29.9959H38.6124C41.4951 29.9959 43.84 27.8196 43.84 25.1449V6.85508C43.84 4.18039 41.4951 2.00459 38.6124 2.00459H7.38811Z" fill="#4A1B00"/>
<path d="M5.64476 6.95043C11.1668 11.9432 16.6889 16.9355 22.2109 21.9282C23.2403 22.8587 24.8201 21.3961 23.7892 20.4638C18.2672 15.4715 12.7451 10.4787 7.22307 5.48647C6.1937 4.55554 4.61385 6.01856 5.64476 6.95043Z" fill="#4A1B00"/>
<path d="M23.7891 21.9282C29.3111 16.9359 34.8332 11.9431 40.3552 6.95085C41.3856 6.01897 39.8068 4.55548 38.7769 5.48641C33.2549 10.4787 27.7328 15.4714 22.2108 20.4637C21.1804 21.3956 22.7592 22.8591 23.7891 21.9282Z" fill="#4A1B00"/>
<path d="M40.2943 25.4622C36.62 22.2289 32.9451 18.996 29.2707 15.7626C28.2285 14.846 26.6477 16.3075 27.6924 17.2271C31.3668 20.4604 35.0416 23.6933 38.716 26.9266C39.7582 27.8433 41.339 26.3813 40.2943 25.4622Z" fill="#4A1B00"/>
<path d="M7.38355 26.9261C11.0579 23.6928 14.7328 20.4599 18.4072 17.2266C19.4514 16.3075 17.8716 14.8449 16.8289 15.7621C13.1545 18.9955 9.47962 22.2283 5.80524 25.4617C4.76104 26.3807 6.34088 27.8437 7.38355 26.9261Z" fill="#4A1B00"/>
</svg>
