<svg width="33" height="32" viewBox="0 0 33 32" fill="none" xmlns="http://www.w3.org/2000/svg">
<g clip-path="url(#clip0_408_847)">
<rect x="1" y="1" width="31" height="30" rx="3" stroke="#4A1B00" stroke-width="2"/>
<path d="M6.66346 26V12.608H10.6325V26H6.66346ZM8.63446 10.637C7.96846 10.637 7.42846 10.448 7.01446 10.07C6.60046 9.692 6.39346 9.188 6.39346 8.558C6.39346 7.928 6.60046 7.424 7.01446 7.046C7.42846 6.668 7.96846 6.479 8.63446 6.479C9.30046 6.479 9.84046 6.668 10.2545 7.046C10.6685 7.424 10.8755 7.928 10.8755 8.558C10.8755 9.188 10.6685 9.692 10.2545 10.07C9.84046 10.448 9.30046 10.637 8.63446 10.637ZM14.3954 26V12.608H17.6354L17.9054 14.309H18.0134C18.5894 13.769 19.2194 13.301 19.9034 12.905C20.6054 12.491 21.4064 12.284 22.3064 12.284C23.7644 12.284 24.8174 12.77 25.4654 13.742C26.1314 14.696 26.4644 16.01 26.4644 17.684V26H22.4954V18.197C22.4954 17.225 22.3604 16.559 22.0904 16.199C21.8384 15.839 21.4244 15.659 20.8484 15.659C20.3444 15.659 19.9124 15.776 19.5524 16.01C19.1924 16.226 18.7964 16.541 18.3644 16.955V26H14.3954Z" fill="#4A1B00"/>
</g>
<defs>
<clipPath id="clip0_408_847">
<rect width="33" height="32" fill="white"/>
</clipPath>
</defs>
</svg>
